<svg width="402" height="458" viewBox="0 0 402 458" fill="none" xmlns="http://www.w3.org/2000/svg">
<mask id="mask0_1068_5345" style="mask-type:alpha" maskUnits="userSpaceOnUse" x="0" y="-93" width="402" height="551">
<path d="M402 408H401.962C399.862 435.705 310.693 458 201 458C91.3075 458 2.13803 435.705 0.0380859 408H0V-93H402V408Z" fill="black"/>
</mask>
<g mask="url(#mask0_1068_5345)">
<rect y="-93" width="402" height="551" fill="url(#paint0_linear_1068_5345)"/>
<g filter="url(#filter0_d_1068_5345)">
<ellipse cx="253" cy="447.5" rx="272" ry="117.5" fill="url(#paint1_radial_1068_5345)"/>
</g>
<path d="M120.644 97.3759C121.497 95.728 122.504 94.1641 123.649 92.7044C133.393 80.4885 153.415 75.6792 168.321 79.0472C174.062 80.4639 178.007 83.3881 183.999 84.2539C192.523 85.4855 201.515 79.8326 209.067 86.0054C212.399 88.7293 213.427 92.3358 213.789 96.4351C228.55 97.0678 233.122 109.868 224.963 121.325C221.056 126.812 218.506 128.698 212.438 131.551C212.82 136.974 211.785 141.943 212.116 147.089C212.467 152.522 215.948 158.761 216.197 164.317C216.489 168.137 211.815 168.659 209.337 169.899C208.623 171.917 207.947 174.41 207.237 176.29C205.872 180 204.541 183.715 202.999 187.355C198.798 196.182 197.187 202.282 185.958 201.651C182.161 200.784 178.686 199.765 175.084 198.287C174.21 197.928 172.394 196.936 171.58 196.999C169.653 198.286 164.654 206.817 164.057 208.724C164.233 210.498 164.234 211.765 163.916 213.554C161.729 223.826 155.805 226.441 146.037 224.624L144.915 224.237C140.938 223.443 133.977 219.031 130.917 216.462C123.623 210.341 116.103 201.514 115.055 191.731C115.967 190.763 116.811 189.745 117.671 188.731C119.792 185.443 121.352 182.864 123.041 179.342C115.636 176.852 118.847 170.357 116.318 165.105C110.247 152.502 99.9704 149.871 103.725 133.976C102.748 131.607 101.86 129.523 101.246 127.014C99.6795 120.746 100.69 114.112 104.051 108.595C108.04 102.111 113.457 99.1322 120.644 97.3759Z" fill="#424063"/>
<path d="M208.101 115.78C210.503 120.528 212.216 126.215 212.436 131.55C212.818 136.974 211.783 141.943 212.115 147.089C212.465 152.522 215.946 158.761 216.195 164.317C216.487 168.137 211.813 168.659 209.335 169.899C208.621 171.917 207.946 174.41 207.235 176.29C205.87 180 204.539 183.715 202.997 187.355C198.797 196.182 197.185 202.282 185.956 201.651C182.16 200.784 178.684 199.765 175.082 198.287C174.208 197.928 172.392 196.936 171.579 196.999C169.651 198.286 164.652 206.817 164.055 208.724C164.232 210.498 164.232 211.765 163.914 213.554C161.727 223.826 155.803 226.44 146.035 224.624L144.913 224.237C140.936 223.443 133.975 219.031 130.915 216.462C123.621 210.34 116.101 201.514 115.053 191.731C115.965 190.763 116.809 189.745 117.669 188.73C119.79 185.443 121.35 182.864 123.039 179.342C131.561 180.222 137.994 174.515 142.751 168.175L144.45 164.973C142.613 163.688 141.042 162.06 139.823 160.178C137.157 156.066 136.295 151.551 137.304 146.795C139.589 135.986 152.656 134.417 157.648 144.107C158.525 145.479 159.468 149.056 161.212 149.35C166.003 150.16 166.446 142.665 168.922 139.779C170.683 137.724 171.946 136.423 174.165 134.85C179.847 130.822 182.885 125.916 183.978 119.031C184.808 119.32 185.653 119.564 186.51 119.762C193.782 121.484 201.783 119.629 208.101 115.78Z" fill="#FCB198"/>
<path d="M208.101 115.78C210.503 120.528 212.216 126.215 212.436 131.55C212.818 136.974 211.783 141.943 212.115 147.089C212.465 152.522 215.946 158.761 216.195 164.317C216.487 168.137 211.813 168.659 209.335 169.899C208.621 171.917 207.946 174.41 207.235 176.29C205.87 180 204.539 183.715 202.997 187.355C198.797 196.182 197.185 202.282 185.956 201.651C182.16 200.784 178.684 199.765 175.082 198.287C174.208 197.928 172.392 196.936 171.579 196.999C169.651 198.286 164.652 206.817 164.055 208.724C164.232 210.498 164.232 211.765 163.914 213.554C161.727 223.826 155.803 226.44 146.035 224.624L144.913 224.237C140.936 223.443 133.975 219.031 130.915 216.462C123.621 210.34 116.101 201.514 115.053 191.731C115.965 190.763 116.809 189.745 117.669 188.73C119.79 185.443 121.35 182.864 123.039 179.342C131.561 180.222 137.994 174.515 142.751 168.175L144.45 164.973C142.613 163.688 141.042 162.06 139.823 160.178C137.157 156.066 136.295 151.551 137.304 146.795C139.589 135.986 152.656 134.417 157.648 144.107C158.525 145.479 159.468 149.056 161.212 149.35C166.003 150.16 166.446 142.665 168.922 139.779C170.683 137.724 171.946 136.423 174.165 134.85C179.847 130.822 182.885 125.916 183.978 119.031C184.808 119.32 185.653 119.564 186.51 119.762C193.782 121.484 201.783 119.629 208.101 115.78Z" fill="url(#paint2_linear_1068_5345)"/>
<g filter="url(#filter1_d_1068_5345)">
<path d="M145.189 145.124C149.978 144.907 153.392 147.953 153.967 152.786C154.094 153.852 154.207 155.196 153.826 156.201C152.64 154.121 152.583 148.768 149.518 146.968C148.188 146.189 145.981 146.608 144.925 145.808L145.189 145.124Z" fill="#ED9D88"/>
</g>
<path d="M197.268 148.073C198.84 146.428 202.732 144.182 205.731 148.36" stroke="#424063" stroke-width="1.79836" stroke-linecap="round"/>
<path d="M188.001 138.292C190.176 135.895 196.352 131.94 203.656 135.299" stroke="#424063" stroke-width="2.39781" stroke-linecap="round"/>
<path d="M202.869 187.006C200.316 186.669 197.858 185.841 196.621 183.581C195.913 182.298 195.811 180.801 196.34 179.446C198.018 175.192 203.289 175.518 207.009 177.046C205.675 180.385 204.374 183.729 202.869 187.006Z" fill="url(#paint3_linear_1068_5345)"/>
<path d="M206.711 113.685L208.101 115.78C201.784 119.63 193.783 121.484 186.51 119.762C185.654 119.564 184.809 119.32 183.979 119.031L184.235 116.424C192.023 118.617 199.664 117.52 206.711 113.685Z" fill="#EA9275"/>
<path d="M144.45 164.973C148.301 166.777 148.896 167.021 153.099 166.646C151.499 167.72 150.473 168.604 148.441 168.174C145.797 167.613 145.161 166.118 142.752 168.175L144.45 164.973Z" fill="#EA9275"/>
<path d="M39.6762 253.689C43.8976 240.441 47.723 230.404 57.2458 219.729C69.5217 205.967 87.7277 198.002 104.821 192.116C109.953 190.348 111.614 188.562 117.493 188.23C116.634 189.244 115.789 190.263 114.877 191.231C115.925 201.014 123.445 209.84 130.739 215.962C133.799 218.531 140.76 222.943 144.737 223.737L145.859 224.123C155.627 225.94 161.551 223.326 163.738 213.053C164.056 211.265 164.056 209.998 163.879 208.224C164.476 206.316 169.475 197.786 171.403 196.499C172.216 196.436 174.032 197.428 174.906 197.787C178.509 199.265 181.984 200.284 185.78 201.151C192.411 205.197 197.535 208.369 202.329 214.773C210.925 226.253 216.19 239.956 222.919 252.578C227.953 262.113 233.433 271.81 238.461 281.301C243.719 291.233 249.317 301.169 252.07 312.003C256.27 328.528 248.838 343.304 234.288 351.441C233.215 352.042 231.017 353.495 229.668 353.882C225.997 353.758 223.558 358.189 219.901 357.131C219.642 358.1 219.664 358.227 218.972 358.893L218.377 359.108L217.404 359.529C218.486 361.988 217.968 364.54 214.943 364.836L213.482 365.059C214.796 370.689 208.407 369.064 205.482 369.033C204.513 369.258 204.547 369.301 203.631 368.99C197.638 371.264 193.603 372.54 187.131 373.294C185.889 373.44 182.885 373.016 182.035 373.282C177.851 374.596 174.885 376.25 170.329 376.159C169.383 376.142 164.269 375.924 163.95 376.552C162.634 379.12 160.146 380.372 157.497 381.191C155.164 381.911 152.124 382.462 149.907 383.34C148.44 383.922 146.298 385.789 144.723 386.404C142.911 387.115 140.563 387.556 138.805 388.212C134.487 389.825 129.94 391.079 125.479 392.286C115.861 394.885 105.974 396.592 96.2319 398.634C93.9578 399.11 92.0174 398.916 89.6458 399.546C88.2669 399.915 84.8993 400.128 83.36 400.243C73.4266 400.985 63.5268 401.011 53.7474 398.823C50.5407 398.107 47.3332 395.881 44.3458 394.861C44.3413 394.861 41.4449 396.52 40.6399 396.853C33.9092 402.107 27.4581 407.924 21.9809 414.5C20.1945 416.587 18.8972 418.347 17.2849 420.566C12.1439 427.67 8.25167 434.498 5.23819 442.804C4.34304 445.27 3.87364 448.159 3.02113 450.5C-2.49291 441.377 -0.98276 433.25 -1.00067 423.034L-0.999976 388.542L-0.977014 279.376C-0.371248 278.539 0.601448 276.485 1.26425 275.467C7.08757 266.529 18.9875 262.737 28.7121 260.298C30.4743 259.575 36.4055 258.268 38.5846 257.746C38.9011 256.427 39.3168 255.005 39.6762 253.689Z" fill="#9387D9"/>
<path opacity="0.7" d="M39.6752 253.689C43.8966 240.441 47.7221 230.404 57.2448 219.729C69.5208 205.967 87.7268 198.002 104.82 192.116C109.952 190.348 111.613 188.562 117.492 188.23C116.633 189.244 115.788 190.263 114.876 191.231C115.924 201.014 123.444 209.84 130.738 215.962C133.798 218.531 140.759 222.943 144.736 223.737L145.858 224.123C155.626 225.94 161.55 223.326 163.737 213.053C164.055 211.265 164.055 209.998 163.878 208.224C164.475 206.316 169.474 197.786 171.402 196.499C172.215 196.436 174.031 197.428 174.906 197.787C178.508 199.265 181.983 200.284 185.779 201.151C192.41 205.197 197.534 208.369 202.328 214.773C210.924 226.253 216.189 239.956 222.918 252.578C227.952 262.113 233.432 271.81 238.46 281.301C243.718 291.233 249.316 301.169 252.069 312.003C256.269 328.528 248.837 343.304 234.287 351.441C233.214 352.042 231.016 353.495 229.667 353.882C225.996 353.758 223.557 358.189 219.9 357.131C219.641 358.1 219.663 358.227 218.971 358.893L218.376 359.108L217.403 359.529C218.485 361.988 217.967 364.54 214.942 364.836L213.481 365.059C214.795 370.689 208.406 369.064 205.481 369.033C204.512 369.258 204.546 369.301 203.63 368.99C197.637 371.264 193.602 372.54 187.13 373.294C185.888 373.44 182.884 373.016 182.034 373.282C177.85 374.596 174.884 376.25 170.328 376.159C169.382 376.142 164.268 375.924 163.949 376.552C162.633 379.12 160.145 380.372 157.496 381.191C155.163 381.911 152.123 382.462 149.906 383.34C148.439 383.922 146.297 385.789 144.722 386.404C142.91 387.115 140.562 387.556 138.804 388.212C134.486 389.825 129.939 391.079 125.478 392.286C115.86 394.885 105.973 396.592 96.2309 398.634C93.9568 399.11 92.0164 398.916 89.6449 399.546C88.266 399.915 84.8983 400.128 83.359 400.243C73.4257 400.985 63.5258 401.011 53.7464 398.823C50.5397 398.107 47.3323 395.881 44.3449 394.861C44.3403 394.861 41.4439 396.52 40.6389 396.853C33.9082 402.107 27.4572 407.924 21.9799 414.5C20.1935 416.587 18.8962 418.347 17.2839 420.566C12.1429 427.67 8.2507 434.498 5.23721 442.804C4.34207 445.27 3.87266 448.159 3.02016 450.5C-2.49389 441.377 -0.983737 433.25 -1.00165 423.034L-1.00095 388.542L-0.97799 279.376C-0.372225 278.539 0.600471 276.485 1.26327 275.467C7.08659 266.529 18.9865 262.737 28.7111 260.298C30.4733 259.575 36.4045 258.268 38.5836 257.746C38.9002 256.427 39.3158 255.005 39.6752 253.689Z" fill="url(#paint4_linear_1068_5345)"/>
<path opacity="0.65" d="M92.5 332L97 300.5L97.5 296.5L98.5 289.5L100 284.5L100.5 276L102.5 268L151 292.5V343L139.5 343.5L132 342.5L115.5 341.5L101.5 341H95.5L95 340L94.5 337L92.5 334V332Z" fill="url(#paint5_linear_1068_5345)"/>
<path d="M175.728 330.112C179.38 328.645 188.012 324.889 190.229 330.136L190.444 330.514C192.297 330.591 196.588 330.929 198.208 330.787C200.627 330.493 201.688 330.689 204.076 331.218C210.756 333.004 216.364 336.834 219.854 342.852C222.47 347.362 223.79 352.729 220.221 357.088L220.078 357.631C219.819 358.601 219.841 358.727 219.149 359.393L218.554 359.608L217.581 360.03C218.663 362.488 218.145 365.04 215.12 365.337L213.659 365.559C214.973 371.189 208.584 369.564 205.659 369.533C204.59 369.282 204.079 369.102 203.034 369.32C198.284 371.043 187.888 374.433 183.041 373.057C177.751 374.885 171.879 377.152 166.067 376.176C165.316 376.173 164.829 376.264 164.219 375.85C165.064 371.716 165.243 368.978 165.066 364.832C164.894 364.391 164.429 360.808 164.232 359.982C162.818 354.079 160.589 349.124 156.238 344.903C158.696 343.632 161.756 340.643 163.903 338.72C168.13 334.933 170.78 332.824 175.728 330.112Z" fill="#FCB198"/>
<path d="M198.209 330.787C200.627 330.493 201.689 330.689 204.077 331.218C210.757 333.004 216.364 336.834 219.855 342.852C222.471 347.362 223.791 352.729 220.222 357.088C219.934 354.301 219.377 353.495 217.751 351.266C217.893 350.225 217.864 350.146 217.345 349.243C218.919 347.508 218.681 345.691 217.448 343.79C214.448 339.17 209.729 335.149 204.774 332.769C202.931 331.881 200.218 331.297 198.209 330.787Z" fill="#F49E81"/>
<path d="M183.041 373.057C184.226 372.056 189.816 369.878 191.445 369.384C193.628 368.726 201.197 368.286 203.034 369.32C198.284 371.043 187.889 374.433 183.041 373.057Z" fill="#F49E81"/>
<path d="M217.751 351.266C216.701 350.342 214.816 348.288 213.737 347.254C208.868 342.584 204.883 341.442 198.349 340.532C197.008 340.346 193.796 339.879 192.628 339.17L192.559 338.775C193.65 338.445 197.662 339.242 199.021 339.386C207.136 340.247 211.844 343.273 217.345 349.243C217.865 350.146 217.893 350.225 217.751 351.266Z" fill="#EA9275"/>
<path d="M217.58 360.029C217.002 360.106 215.146 357.614 214.415 357.013C211.815 354.708 209.376 353.15 206.171 351.905C203.84 350.998 195.59 350.44 194.422 348.805L194.661 348.554C197.931 348.491 204.554 349.98 207.668 351.149C211.145 352.451 216.249 356.635 218.553 359.608L217.58 360.029Z" fill="#EA9275"/>
<path d="M213.658 365.559C207.827 361.071 202.483 360.2 195.402 359.453C194.87 359.395 194.788 359.319 194.561 358.924L194.863 358.524C195.329 358.332 195.664 358.237 196.18 358.28C202.275 358.77 210.895 360.724 215.12 365.337L213.658 365.559Z" fill="#EA9275"/>
<path opacity="0.8" d="M165.068 364.831L165.547 364.8C166.117 365.712 166.296 368.008 166.606 369.193C167.22 371.539 167.731 373.77 168.799 375.977C167.765 376.137 167.12 376.152 166.069 376.175C165.318 376.173 164.831 376.264 164.221 375.85C165.066 371.716 165.245 368.977 165.068 364.831Z" fill="#EA9275"/>
<path d="M185.497 330.452C187.498 330.263 188.733 330.366 190.761 330.495C188.544 330.914 186.335 331.371 184.135 331.869C182.284 332.353 181.184 332.669 179.295 332.848C181.565 331.589 182.977 331.096 185.497 330.452Z" fill="#EA9275"/>
<path d="M175.729 330.112C176.786 327.163 178.007 322.423 178.862 319.326C180.584 313.109 182.21 306.869 183.74 300.602L195.888 318.823C193.231 322.198 191.239 325.076 190.315 329.308L190.23 330.136C188.013 324.889 179.381 328.645 175.729 330.112Z" fill="#EBE4F5"/>
<path d="M190.399 329.308C195.188 326.129 198.379 324.951 204.107 324.487C216.812 323.455 232.328 337.231 229.19 350.629C228.898 351.841 228.431 352.999 227.803 354.074C227.481 353.576 228.305 349.818 228.291 348.822C228.117 336.417 220.154 329.16 208.9 325.995C205 326 206.5 325 201.584 325.995C199 325.995 198.084 327 195.084 328C193.464 328.141 192.584 329.308 190.529 330.514L190.314 330.136L190.399 329.308Z" fill="#8473C6"/>
<path d="M147.644 342.88C147.548 342.96 147.452 343.04 147.356 343.12C147.745 343.654 148.09 344.209 148.421 344.782C149.735 347.087 150.76 349.529 151.686 352.012C154.879 360.748 155.998 370.15 155.864 379.486C155.854 380.147 155.837 380.813 155.813 381.489C155.938 381.496 156.062 381.504 156.187 381.511C156.239 380.833 156.283 380.166 156.32 379.502C156.818 370.133 155.879 360.57 152.624 351.665C151.68 349.133 150.502 346.678 148.925 344.457C148.529 343.905 148.112 343.378 147.644 342.88Z" fill="#8473C6"/>
<path opacity="0.9" d="M150.933 349.825C150.978 349.942 151.022 350.058 151.067 350.175C151.207 350.166 151.352 350.151 151.493 350.134C152.055 350.066 152.594 349.945 153.115 349.767C154.932 349.178 156.762 348.418 158.583 348.165C158.711 348.157 158.836 348.158 158.941 348.178C158.98 348.059 159.02 347.941 159.059 347.822C158.904 347.757 158.751 347.729 158.599 347.71C156.534 347.613 154.651 348.223 152.792 348.821C152.263 349.001 151.757 349.252 151.282 349.572C151.163 349.652 151.044 349.738 150.933 349.825Z" fill="#8473C6"/>
<path opacity="0.9" d="M154.969 361.315C154.99 361.438 155.01 361.562 155.031 361.685C155.188 361.701 155.344 361.713 155.499 361.721C156.121 361.752 156.732 361.718 157.332 361.618C159.432 361.268 161.517 360.829 163.587 360.3C163.735 360.262 163.883 360.224 164.031 360.185C164.01 360.062 163.99 359.938 163.969 359.815C163.817 359.826 163.665 359.838 163.513 359.85C161.383 360.021 159.268 360.282 157.168 360.632C156.568 360.732 155.979 360.898 155.401 361.129C155.256 361.187 155.112 361.249 154.969 361.315Z" fill="#8473C6"/>
<path opacity="0.9" d="M156 371.812C156 371.938 156 372.062 156 372.188C156.148 372.229 156.306 372.265 156.457 372.296C157.068 372.421 157.685 372.464 158.294 372.432C160.427 372.31 162.567 372.023 164.618 371.338C164.763 371.288 164.91 371.235 165.052 371.18C165.017 371.06 164.983 370.94 164.948 370.82C164.803 370.847 164.654 370.873 164.507 370.896C162.434 371.213 160.337 371.313 158.241 371.434C157.643 371.465 157.046 371.554 156.448 371.697C156.301 371.732 156.146 371.771 156 371.812Z" fill="#8473C6"/>
<path d="M155.966 381.316C155.989 381.439 156.011 381.561 156.034 381.684C156.199 381.697 156.376 381.697 156.541 381.692C157.218 381.668 157.877 381.525 158.498 381.283C160.65 380.438 162.698 379.043 163.916 377.035C164.002 376.892 164.083 376.747 164.159 376.599C164.053 376.533 163.947 376.467 163.841 376.401C163.746 376.527 163.647 376.65 163.546 376.77C162.111 378.448 160.161 379.549 158.135 380.351C157.552 380.578 156.982 380.833 156.403 381.109C156.261 381.176 156.11 381.247 155.966 381.316Z" fill="#8473C6"/>
<path d="M100.504 274.201L101.014 274.665C100.782 279.034 100.232 286.73 99.1158 290.847C99.0777 290.289 99.0332 289.799 98.969 289.243C98.8172 289.638 98.5922 290.251 98.5436 290.668C96.869 305.078 94.4713 319.419 92.9135 333.832C92.858 334.347 94.1184 335.874 94.4222 336.362C96.4188 339.575 93.0366 341.325 98.6616 340.786C99.8648 340.875 101.216 340.867 102.399 340.958C115.309 341.969 128.362 340.99 141.065 343.663C142.826 344.034 149.456 342.335 152.567 342.995C150.869 343.108 149.265 343.161 147.547 343.309C145.875 343.45 142.621 343.982 141.108 343.891C139.098 343.668 137.252 342.972 135.213 342.828C128.698 342.368 122.056 341.973 115.528 341.897C102.338 341.569 92.3578 338.928 80.5861 346.622C80.0373 346.981 73.9016 350.806 73.8887 350.806C73.9222 350.134 76.9594 347.539 77.6942 346.998C82.8279 343.209 88.3356 340.437 94.7481 340.724C94.7998 336.611 93.2588 334.605 89.7521 332.573C90.6303 332.889 91.5811 333.341 92.4421 333.727C92.9502 327.367 94.5067 318.318 95.4237 311.786C96.7615 301.957 98.0149 292.116 99.1833 282.263C99.8628 283.118 98.4365 286.562 99.0868 288.482L99.3019 288.238C99.1608 286.785 99.6308 285.598 99.7611 284.068C100.034 280.868 100.477 277.399 100.504 274.201Z" fill="#8473C6" stroke="#8473C6" stroke-width="0.5"/>
<path d="M220.148 300.334C223.361 300.013 225.844 300.547 228.918 301.356C218.107 301.401 211.229 303.115 203.01 310.854C201.718 312.156 200.408 313.442 199.082 314.708L198.908 314.538C198.895 314.553 199.518 313.815 199.508 313.825C200.458 312.965 200.628 310.804 201.355 309.87C202.077 308.944 203.551 307.733 204.463 306.971C209.179 303.041 214.043 300.939 220.148 300.334Z" fill="#8473C6"/>
<path d="M193.02 257.753C193.62 259.087 189.801 281.263 188.825 283.637L188.598 283.565C188.542 282.704 188.862 281.603 189.057 280.734C189.35 278.658 191.188 270.866 190.869 269.543L190.46 270.656L190.304 270.608C190.283 269.093 191.311 264.209 191.635 262.498C191.808 263.147 191.77 263.563 192.189 263.812C192.35 261.583 192.705 259.939 193.02 257.753Z" fill="#8473C6" stroke="#8473C6" stroke-width="0.4"/>
<path opacity="0.9" d="M201.142 326.122C201.047 326.041 200.952 325.959 200.857 325.878C200.77 325.916 200.682 325.962 200.6 326.009C200.269 326.198 199.992 326.439 199.775 326.725C199.056 327.747 198.251 328.771 198.218 330.247C198.232 330.358 198.263 330.476 198.332 330.584C198.444 330.528 198.556 330.472 198.668 330.416C198.658 330.367 198.661 330.307 198.673 330.242C198.99 329.252 199.879 328.287 200.572 327.329C200.78 327.055 200.941 326.745 201.061 326.393C201.09 326.305 201.119 326.213 201.142 326.122Z" fill="#8473C6"/>
<path opacity="0.9" d="M215.109 328.153C215.036 328.051 214.964 327.949 214.891 327.847C214.77 327.883 214.645 327.929 214.529 327.976C214.057 328.171 213.636 328.446 213.274 328.782C212.023 329.96 210.914 331.387 210.413 333.077C210.379 333.197 210.348 333.319 210.322 333.441C210.441 333.48 210.559 333.52 210.678 333.559C210.728 333.454 210.781 333.349 210.836 333.247C211.624 331.817 212.771 330.633 213.955 329.514C214.297 329.197 214.605 328.843 214.895 328.452C214.966 328.355 215.04 328.253 215.109 328.153Z" fill="#8473C6"/>
<path opacity="0.9" d="M227.059 339.678C227.02 339.559 226.98 339.441 226.941 339.322C226.803 339.324 226.666 339.33 226.53 339.34C225.988 339.381 225.467 339.484 224.967 339.651C223.217 340.234 221.496 340.903 219.803 341.659C219.682 341.713 219.561 341.767 219.441 341.822C219.48 341.941 219.52 342.059 219.559 342.178C219.689 342.149 219.818 342.12 219.947 342.091C221.754 341.68 223.533 341.183 225.283 340.599C225.783 340.433 226.262 340.203 226.72 339.91C226.834 339.836 226.947 339.759 227.059 339.678Z" fill="#8473C6"/>
<path opacity="0.9" d="M228.584 351.168C228.528 351.056 228.472 350.944 228.416 350.832C228.301 350.843 228.183 350.858 228.069 350.875C227.612 350.941 227.183 351.047 226.772 351.202C225.333 351.728 223.867 352.269 222.358 352.324C222.251 352.326 222.143 352.323 222.037 352.316C222.012 352.439 221.988 352.561 221.963 352.684C222.076 352.721 222.193 352.752 222.309 352.777C223.968 353.098 225.617 352.689 227.125 352.138C227.558 351.974 227.962 351.734 228.323 351.418C228.413 351.34 228.502 351.255 228.584 351.168Z" fill="#8473C6"/>
<path d="M107.185 191.967C107.062 191.989 106.938 192.011 106.815 192.033C106.901 192.744 107.026 193.497 107.163 194.204C107.733 197.094 108.631 199.909 109.775 202.623C113.771 212.045 120.296 220.824 129.442 225.697C130.095 226.045 130.745 226.364 131.42 226.669C131.473 226.556 131.527 226.444 131.58 226.331C130.926 226.004 130.295 225.664 129.663 225.299C120.829 220.174 114.639 211.507 110.696 202.234C109.571 199.564 108.565 196.849 107.746 194.062C107.546 193.381 107.35 192.654 107.185 191.967Z" fill="#8473C6"/>
<path d="M147.531 231.815C147.51 231.938 147.49 232.062 147.469 232.185C148.015 232.318 148.592 232.422 149.156 232.495C151.434 232.783 153.786 232.624 156.017 231.99C164.3 230.007 168.553 221 168.225 213.199C168.226 212.646 168.213 212.078 168.187 211.496C168.062 211.499 167.938 211.501 167.813 211.504C167.811 212.081 167.796 212.643 167.77 213.188C167.681 220.954 163.511 229.15 155.743 231.028C153.632 231.627 151.423 231.913 149.198 231.896C148.646 231.891 148.078 231.864 147.531 231.815Z" fill="#8473C6"/>
<path d="M119 203.688C119 203.562 119 203.438 119 203.312C118.87 203.271 118.73 203.239 118.596 203.216C118.05 203.125 117.494 203.167 116.973 203.325C115.154 203.85 113.509 205.256 112.938 207.052C112.895 207.18 112.858 207.304 112.824 207.434C112.941 207.478 113.059 207.522 113.176 207.566C113.233 207.453 113.291 207.346 113.354 207.239C114.217 205.73 115.666 204.761 117.263 204.282C117.719 204.144 118.169 203.985 118.642 203.814C118.758 203.772 118.881 203.729 119 203.688Z" fill="#8473C6"/>
<path d="M135.037 219.684C135.012 219.561 134.988 219.439 134.963 219.316C134.813 219.304 134.655 219.303 134.505 219.31C133.893 219.34 133.301 219.503 132.761 219.774C130.884 220.697 129.279 222.446 128.888 224.52C128.859 224.667 128.836 224.81 128.817 224.959C128.939 224.986 129.061 225.014 129.183 225.041C129.227 224.906 129.274 224.778 129.326 224.648C130.039 222.832 131.521 221.516 133.21 220.667C133.695 220.425 134.17 220.163 134.663 219.889C134.784 219.821 134.913 219.751 135.037 219.684Z" fill="#8473C6"/>
<path d="M151.685 225.531C151.562 225.51 151.439 225.49 151.315 225.469C151.258 225.561 151.204 225.66 151.155 225.755C150.958 226.143 150.832 226.542 150.778 226.954C150.642 228.396 150.385 229.865 151.093 231.391C151.167 231.497 151.267 231.608 151.417 231.668C151.472 231.556 151.528 231.444 151.584 231.332C151.549 231.299 151.518 231.244 151.492 231.171C151.264 229.96 151.622 228.464 151.769 227.084C151.822 226.682 151.814 226.275 151.747 225.85C151.73 225.745 151.71 225.636 151.685 225.531Z" fill="#8473C6"/>
<path d="M163.441 215.322C163.48 215.441 163.52 215.559 163.559 215.678C163.636 215.696 163.713 215.71 163.788 215.721C164.086 215.766 164.356 215.757 164.609 215.696C165.493 215.492 166.362 215.296 167.215 215.536C167.275 215.554 167.336 215.574 167.396 215.598C167.465 215.494 167.535 215.39 167.604 215.286C167.549 215.232 167.492 215.182 167.431 215.135C166.543 214.458 165.343 214.49 164.375 214.723C164.091 214.792 163.831 214.937 163.605 215.15C163.547 215.203 163.492 215.261 163.441 215.322Z" fill="#8473C6"/>
<path d="M184 301C185.2 301 188.833 282.667 190.5 273.5L193 258.5L204 250.5L232.5 271.5L195 317.5L184 301Z" fill="url(#paint6_linear_1068_5345)"/>
<path opacity="0.6" d="M209 305L220 301H221.5H231L242 305L236 318L218.5 329.5L215.5 327.5L207 325L198 326L190.5 329.5L191 326L195.5 319L201.5 311L209 305Z" fill="url(#paint7_linear_1068_5345)"/>
<path d="M28.8888 260.798C31.2106 260.999 36.4796 258.591 38.2447 259.041C38.2135 259.113 38.1812 259.185 38.151 259.256C37.5975 260.573 37.5077 262.062 37.1842 263.453C35.002 272.846 33.7967 282.311 32.8442 291.893C30.5395 315.079 25.9009 360.357 34.8634 381.758C37.013 386.89 40.1153 391.024 44.4036 394.543C43.6702 395.091 41.2984 396.791 40.8166 397.353C34.0859 402.607 27.6349 408.424 22.1576 415C20.3712 417.087 19.074 418.847 17.4616 421.066C12.3206 428.17 8.42842 434.998 5.41495 443.304C4.5198 445.769 4.05039 448.659 3.19789 451C-2.31615 441.877 -0.806002 433.75 -0.823912 423.534L-0.823218 389.042L-0.800256 279.876C-0.19449 279.039 0.778206 276.985 1.441 275.967C7.26433 267.029 19.1642 263.237 28.8888 260.798Z" fill="#897DC8"/>
<path d="M-0.77962 265.691C7.24562 260.422 30.3225 255.754 39.8521 254.189C39.4927 255.506 39.0771 256.927 38.7606 258.246C36.5815 258.768 30.6502 260.075 28.888 260.798C19.1634 263.237 7.26353 267.029 1.44021 275.967C0.777412 276.985 -0.195284 279.039 -0.80105 279.876C-0.837922 275.149 -0.830787 270.421 -0.77962 265.691Z" fill="#B89CE0"/>
<g opacity="0.8">
<path d="M260.008 170.581C260.003 170.531 260.024 170.481 260.063 170.448C260.153 170.373 260.291 170.425 260.31 170.541C263.511 190.487 256.637 211.677 241.218 224.99C240.741 224.669 240.919 224.878 240.682 224.365C241.225 223.268 244.137 221.015 245.164 219.863C246.325 218.56 247.029 217.488 248.066 216.102C256.542 204.775 260.237 191.003 260.5 177C260.407 175.633 260.437 174.752 260.267 173.094L260.008 170.581Z" fill="#EBE4F5" stroke="#EBE4F5" stroke-width="0.8"/>
<path d="M251.337 173.15C251.627 173.235 251.991 173.273 252.104 173.477C252.927 174.992 252.776 180.601 252.673 182.171C251.864 194.549 246.47 208.449 237.058 216.765C236.677 216.948 236.883 216.884 236.37 216.794C236.289 216.304 236.356 215.889 236.744 215.498C245.538 206.656 250.835 194.047 251.582 181.642C251.742 178.978 251.385 175.852 251.337 173.15Z" fill="#EBE4F5" stroke="#EBE4F5" stroke-width="0.6"/>
<path d="M271.284 187.698C271.721 187.871 271.62 187.84 272.005 188.13C272.366 191.074 262.746 217.273 260.238 220.973C259.589 220.587 259.438 220.58 259.069 219.921C259.066 219.182 262.508 212.248 263.184 210.825C266.708 203.404 268.39 195.103 271.284 187.698Z" fill="#EBE4F5" stroke="#EBE4F5" stroke-width="0.6"/>
<path d="M243.405 176.607C244.607 177.52 244.267 181.778 244.143 183.343C243.405 192.646 239.134 202.981 232.099 209.265C231.979 209.174 231.319 208.617 231.438 208.435C233.387 205.482 235.839 203.054 237.57 199.896C240.474 194.716 242.289 188.997 242.902 183.091C243.111 181.053 243.094 178.773 243.372 176.819L243.405 176.607Z" fill="#EBE4F5" stroke="#EBE4F5" stroke-width="0.6"/>
<path d="M298.969 200.501L299.502 201.013C299.93 203.824 292.768 224.712 290.726 226.53C290.268 226.086 290.253 226.128 290.067 225.529C292.109 220.475 293.933 215.876 295.667 210.695C296.351 208.649 298.2 201.878 298.969 200.501Z" fill="#EBE4F5" stroke="#EBE4F5" stroke-width="0.6"/>
<path d="M277.991 197.394C278.258 197.593 278.711 197.982 278.658 198.28C278.039 201.717 273.824 214.921 272.072 216.956C271.488 216.696 271.511 216.716 271.042 216.282C271.047 216.177 277.679 197.901 277.991 197.394Z" fill="#EBE4F5" stroke="#EBE4F5" stroke-width="0.6"/>
<path d="M234.89 178.933C235.311 179.067 235.199 178.986 235.498 179.221C235.802 179.459 235.838 179.913 235.855 180.283C236.187 188.448 232.57 195.654 227.48 201.745C226.921 201.654 227.103 201.735 226.676 201.371C226.682 201.184 226.688 200.996 226.694 200.809C232.282 194.412 234.468 187.118 234.89 178.933Z" fill="#EBE4F5" stroke="#EBE4F5" stroke-width="0.6"/>
<path d="M286.239 203.232C286.845 203.392 286.826 203.356 287.299 203.755C287.49 205.54 284.253 214.78 283.199 216.595C282.639 216.397 282.552 216.331 282.037 216.02C281.978 215.587 285.751 204.701 286.239 203.232Z" fill="#EBE4F5" stroke="#EBE4F5" stroke-width="0.6"/>
<path d="M306.05 210.222C306.6 210.46 306.409 210.339 306.824 210.792C307.144 212.649 304.147 221.724 302.544 222.874L302.063 222.2C301.904 220.642 305.259 211.666 306.05 210.222Z" fill="#EBE4F5" stroke="#EBE4F5" stroke-width="0.6"/>
<path d="M226.96 180.703L227.331 181.07C228.372 184.962 224.869 192.676 221.922 195.227L221.535 194.467C221.565 193.809 222.693 192.415 223.178 191.867C225.86 188.835 225.593 183.701 226.96 180.703Z" fill="#EBE4F5" stroke="#EBE4F5" stroke-width="0.6"/>
<path d="M218.6 181.323L219.088 181.567C220.273 183.465 217.683 187.916 216.343 189.444C216.206 189.332 215.547 188.758 215.682 188.539C217.187 186.087 217.963 184.128 218.6 181.323Z" fill="#EBE4F5" stroke="#EBE4F5" stroke-width="0.6"/>
</g>
<path d="M257.5 377.643C265.581 377.263 273.238 381.407 281 383.643C285.42 384.917 289.164 385.114 293.5 386.643C298.219 388.307 297.842 387.935 298.496 391.646C298.755 392.883 299.952 393.793 300.304 394.973C301.479 398.966 296.93 400.883 294.04 402.805C277.603 413.731 261.355 425.273 244.504 435.519C243.273 436.266 240.58 436.266 239.119 436.258C235.817 437.594 227.643 433.752 224.442 432.457C220.367 430.813 216.035 429.209 212.092 427.294C207.298 424.969 201.949 423.739 197.977 420.062C194.491 416.838 196.165 415.363 198.775 412.919C198.758 410.736 201.642 408.484 203 406.643C204.073 405.193 247.141 387.679 253 384.643C254.468 383.882 255.86 377.957 257.5 377.643Z" fill="#EBE4F5"/>
<path d="M297.772 388.761L298.076 390.2L298.146 392.553C297.204 395.988 292.751 398.066 289.804 400.003L277.352 408.204L259.044 420.326C254.495 423.392 250.032 426.49 245.339 429.339C238.352 433.58 231.715 429.841 225.062 427.038L210.609 420.888C207.344 419.476 200.067 417.724 199.207 414.009C199.341 413.02 199.323 410.241 199.342 409.116C200.139 409.765 200.965 410.382 201.913 410.803C210.229 414.497 218.836 417.391 227.051 421.344C228.949 422.258 231.291 423.315 233.257 424.041C234.526 424.522 235.858 424.824 237.208 424.941C239.363 425.099 241.523 424.747 243.515 423.914C247.243 422.375 253.993 417.216 257.711 414.927C261.034 412.883 265.895 410.224 268.713 407.847C274.316 403.989 279.969 400.201 285.672 396.493C289.486 394.001 293.908 391.294 297.502 388.59L297.772 388.761ZM298.805 393.327V393.326V393.327Z" fill="#524A8A"/>
<path d="M213.72 417.958C215.559 418.152 219.333 419.622 220.554 421.085C220.973 421.587 220.731 422.375 220.647 422.969C218.473 422.217 214.882 421.315 213.574 419.625C213.364 418.638 213.397 419.002 213.72 417.958Z" fill="#424063"/>
<path d="M252 375.143C256 371.943 262 372.81 264.5 373.643L291 383.143C291.333 383.477 292.4 384.243 294 384.643C295.6 385.043 295.667 387.477 295.5 388.643L287.5 394.143L257.5 414.143C254.5 416.143 247.7 420.643 244.5 422.643C241.3 424.643 236.167 424.143 234 423.643L229 421.143C221.166 417.81 204.9 410.943 202.5 410.143C201 408.643 200.833 406.977 201.5 405.143L217 395.643C227 390.143 248 378.343 252 375.143Z" fill="url(#paint8_linear_1068_5345)"/>
<path d="M220.321 393.08C221.681 392.934 222.641 392.235 223.982 391.818L224.001 391.44L224.262 391.696L224.243 391.342L224.406 391.282L224.691 391.428L224.626 391.222L224.866 391.363L224.569 391.782L224.387 391.531L224.442 391.904L224.176 391.691L224.243 392.077L223.927 391.904C223.281 392.414 221.533 393.59 221.166 394.006C219.948 394.882 213.928 398.952 212.678 399.299C210.344 400.704 203.161 404.699 201.813 406.485C201.454 408.448 202.567 409.281 204.246 410.008C214.438 414.427 224.71 418.695 234.998 422.892C236.964 423.691 240.472 423.418 242.404 422.494C249.637 419.038 256.59 412.618 263.649 409.07C264.13 409.149 265.402 408.455 266.493 408.295C266.218 408.85 265.967 408.912 265.447 409.202L265.495 409.537C266.587 408.883 267.509 408.283 268.713 407.847C265.895 410.224 261.034 412.883 257.711 414.928C253.993 417.216 247.243 422.375 243.515 423.914C241.523 424.747 239.363 425.099 237.208 424.941C235.858 424.824 234.527 424.522 233.258 424.041C231.292 423.315 228.95 422.257 227.052 421.343C218.837 417.391 210.229 414.497 201.914 410.803C200.965 410.382 200.139 409.764 199.342 409.116C199.323 410.241 199.342 413.02 199.208 414.008L199.059 413.918C198.885 406.296 198.413 405.551 205.627 401.625C207.667 400.515 210.066 399.007 212.161 397.858C213.002 397.137 219.138 393.716 220.321 393.08Z" fill="#5F549C"/>
<path d="M220.321 393.08C221.681 392.934 222.641 392.235 223.982 391.818L224.001 391.44L224.262 391.696L224.243 391.342L224.406 391.282L224.691 391.428L224.626 391.222L224.866 391.363L224.569 391.782L224.387 391.531L224.442 391.904L224.176 391.691L224.243 392.077L223.927 391.904C223.281 392.414 221.533 393.59 221.166 394.006C219.948 394.882 213.928 398.952 212.679 399.299L212.568 399.184C211.333 399.059 208.73 401.781 207.332 401.97L207.344 401.29C208.065 400.498 210.9 399.146 212.24 398.226L212.161 397.858C213.002 397.137 219.138 393.716 220.321 393.08Z" fill="#5F549C"/>
<path d="M255.379 372.668C258.587 371.766 262.5 371.643 266 373.143C268.021 373.624 269.752 374.543 271.737 375.249C279.423 377.98 287.254 380.374 294.842 383.364C298.513 384.812 298.177 386.789 298.074 390.2L297.77 388.762L297.5 388.589C293.906 391.294 289.484 394.002 285.669 396.493C279.966 400.201 274.313 403.988 268.71 407.847C267.506 408.283 266.584 408.884 265.492 409.537L265.445 409.202C265.964 408.912 266.216 408.85 266.491 408.295C265.399 408.455 264.128 409.149 263.646 409.07C263.706 408.953 267.307 406.511 267.741 406.193C269.266 405.439 275.185 401.269 277.016 400.072C282.595 396.331 288.315 392.702 293.851 388.908C296 385.143 288.894 382.991 286.5 382.143L272 377.643L267.291 375.852C261.5 373.643 261.142 372.671 255.678 373.884L255.436 373.939L255.199 373.523L255.379 372.668Z" fill="#5F549C"/>
<path d="M248.865 376.247C249.023 376.752 249.203 377.271 249.315 377.783C245.587 379.892 241.945 382.154 238.227 384.273C232.624 387.466 226.976 390.612 221.589 394.159L221.167 394.006C221.534 393.589 223.282 392.414 223.928 391.904L224.244 392.077L224.177 391.691L224.443 391.904L224.388 391.531L224.57 391.782L224.867 391.363L224.627 391.222L224.692 391.428L224.407 391.282L224.244 391.342L224.263 391.696L224.002 391.44L223.983 391.818C222.642 392.235 221.682 392.934 220.322 393.08C223.136 391.157 227.457 388.795 230.539 386.99L248.865 376.247Z" fill="#5F549C"/>
<path d="M255.381 372.668C253.147 373.717 251.004 375.012 248.863 376.247C249.021 376.752 249.201 377.271 249.313 377.784C250.364 377.096 253.796 374.963 255.381 373.983V372.668Z" fill="#5F549C"/>
<path d="M267.4 379.06C268.069 378.52 268.968 378.361 269.782 378.639L277.687 381.347C278.207 381.525 278.328 382.206 277.902 382.552L277.267 383.068C276.789 383.456 276.146 383.574 275.562 383.379L267.214 380.596C266.689 380.421 266.565 379.735 266.995 379.388L267.4 379.06Z" fill="#5F549C"/>
<g opacity="0.9">
<path d="M258.104 397.539C258.56 397.144 258.525 396.62 258.033 396.371C257.538 396.119 256.776 396.224 256.334 396.61C253.766 398.789 251.226 400.912 248.714 402.98C248.292 403.322 248.353 403.817 248.849 404.079C249.343 404.337 250.076 404.271 250.491 403.935C252.971 401.875 255.509 399.743 258.104 397.539Z" fill="#CDBEFF"/>
<path d="M257.355 393.585C257.778 393.201 257.707 392.698 257.206 392.46C256.714 392.226 255.981 392.337 255.569 392.713C251.331 396.335 247.066 399.87 242.775 403.317C242.345 403.659 242.418 404.136 242.933 404.38C243.449 404.627 244.215 404.55 244.639 404.212C248.86 400.782 253.099 397.24 257.355 393.585Z" fill="#CDBEFF"/>
<path d="M250.087 395.405C250.532 395.038 250.504 394.54 250.03 394.294C249.561 394.049 248.818 394.146 248.37 394.516C246.88 395.717 245.383 396.912 243.881 398.1C243.423 398.456 243.458 398.949 243.951 399.192C244.452 399.44 245.224 399.349 245.672 398.994C247.148 397.806 248.62 396.61 250.087 395.405Z" fill="#CDBEFF"/>
<path d="M260.126 400.955C260.598 400.553 260.612 399.99 260.147 399.707C259.681 399.43 258.921 399.524 258.46 399.918C256.985 401.166 255.542 402.382 254.131 403.565C253.714 403.914 253.757 404.427 254.218 404.712C254.675 405.006 255.371 404.967 255.776 404.631C257.176 403.452 258.626 402.226 260.126 400.955Z" fill="#CDBEFF"/>
<path d="M243.381 391.892C243.862 391.525 243.879 391.033 243.425 390.788C242.974 390.541 242.215 390.635 241.722 390.999C240.104 392.196 238.472 393.397 236.828 394.601C236.33 394.965 236.321 395.462 236.808 395.704C237.308 395.948 238.108 395.847 238.597 395.485C240.202 394.287 241.796 393.09 243.381 391.892Z" fill="#CDBEFF"/>
<path d="M237.776 392.061C238.279 391.698 238.315 391.203 237.854 390.948C237.401 390.697 236.612 390.786 236.099 391.149C235.995 391.225 235.893 391.298 235.793 391.37C235.277 391.736 235.23 392.244 235.697 392.495C236.169 392.743 236.966 392.644 237.47 392.282C237.569 392.21 237.671 392.136 237.776 392.061Z" fill="#CDBEFF"/>
<path d="M260.566 405.147C261.016 404.766 261.087 404.16 260.694 403.811C260.299 403.475 259.593 403.521 259.148 403.894C259.057 403.97 258.97 404.044 258.887 404.115C258.459 404.476 258.447 405.042 258.842 405.379C259.231 405.73 259.877 405.729 260.302 405.37C260.387 405.298 260.475 405.223 260.566 405.147Z" fill="#CDBEFF"/>
<path d="M248.426 392.514C248.874 392.144 248.867 391.653 248.413 391.408C247.967 391.167 247.231 391.266 246.769 391.63C244.05 393.752 241.304 395.867 238.531 397.975C238.058 398.331 238.087 398.823 238.596 399.06C239.108 399.301 239.905 399.202 240.369 398.847C243.077 396.749 245.763 394.638 248.426 392.514Z" fill="#CDBEFF"/>
</g>
<path d="M164.055 208.724C164.231 210.498 164.232 211.765 163.914 213.554C162.998 213.919 163.135 214.025 162.3 213.899L162.074 213.316C162.244 211.797 163.257 210.028 164.055 208.724Z" fill="#EA9275"/>
</g>
<defs>
<filter id="filter0_d_1068_5345" x="-31" y="318" width="568" height="259" filterUnits="userSpaceOnUse" color-interpolation-filters="sRGB">
<feFlood flood-opacity="0" result="BackgroundImageFix"/>
<feColorMatrix in="SourceAlpha" type="matrix" values="0 0 0 0 0 0 0 0 0 0 0 0 0 0 0 0 0 0 127 0" result="hardAlpha"/>
<feOffset/>
<feGaussianBlur stdDeviation="6"/>
<feComposite in2="hardAlpha" operator="out"/>
<feColorMatrix type="matrix" values="0 0 0 0 0 0 0 0 0 0 0 0 0 0 0 0 0 0 0.04 0"/>
<feBlend mode="normal" in2="BackgroundImageFix" result="effect1_dropShadow_1068_5345"/>
<feBlend mode="normal" in="SourceGraphic" in2="effect1_dropShadow_1068_5345" result="shape"/>
</filter>
<filter id="filter1_d_1068_5345" x="141.817" y="144.077" width="13.3053" height="15.2314" filterUnits="userSpaceOnUse" color-interpolation-filters="sRGB">
<feFlood flood-opacity="0" result="BackgroundImageFix"/>
<feColorMatrix in="SourceAlpha" type="matrix" values="0 0 0 0 0 0 0 0 0 0 0 0 0 0 0 0 0 0 127 0" result="hardAlpha"/>
<feOffset dx="-1.0358" dy="1.0358"/>
<feGaussianBlur stdDeviation="1.0358"/>
<feComposite in2="hardAlpha" operator="out"/>
<feColorMatrix type="matrix" values="0 0 0 0 0.929087 0 0 0 0 0.584502 0 0 0 0 0.494048 0 0 0 0.5 0"/>
<feBlend mode="normal" in2="BackgroundImageFix" result="effect1_dropShadow_1068_5345"/>
<feBlend mode="normal" in="SourceGraphic" in2="effect1_dropShadow_1068_5345" result="shape"/>
</filter>
<linearGradient id="paint0_linear_1068_5345" x1="201" y1="-93" x2="201" y2="458" gradientUnits="userSpaceOnUse">
<stop stop-color="#9491D2"/>
<stop offset="0.153846" stop-color="#A8A5E5"/>
<stop offset="0.892784" stop-color="#D5D3F6"/>
</linearGradient>
<radialGradient id="paint1_radial_1068_5345" cx="0" cy="0" r="1" gradientUnits="userSpaceOnUse" gradientTransform="translate(245.5 473) rotate(86.3396) scale(124.712 288.694)">
<stop stop-color="#FCF2FF"/>
<stop offset="0.855769" stop-color="#EAD6FD"/>
<stop offset="1" stop-color="#E9D1FF"/>
</radialGradient>
<linearGradient id="paint2_linear_1068_5345" x1="144.5" y1="189" x2="123.5" y2="225" gradientUnits="userSpaceOnUse">
<stop stop-color="#FCB198" stop-opacity="0"/>
<stop offset="1" stop-color="#FF9A78"/>
</linearGradient>
<linearGradient id="paint3_linear_1068_5345" x1="200.439" y1="179.931" x2="187.991" y2="195.308" gradientUnits="userSpaceOnUse">
<stop stop-color="#EA9275"/>
<stop offset="1" stop-color="#CA1D1D" stop-opacity="0.4"/>
</linearGradient>
<linearGradient id="paint4_linear_1068_5345" x1="119" y1="276.5" x2="9.5" y2="377.5" gradientUnits="userSpaceOnUse">
<stop stop-color="#9387D9"/>
<stop offset="1" stop-color="#AEA4EA"/>
</linearGradient>
<linearGradient id="paint5_linear_1068_5345" x1="144" y1="302.5" x2="94.5" y2="338" gradientUnits="userSpaceOnUse">
<stop stop-color="#9387D9" stop-opacity="0"/>
<stop offset="1" stop-color="#7D70C7" stop-opacity="0.7"/>
</linearGradient>
<linearGradient id="paint6_linear_1068_5345" x1="210" y1="282.5" x2="176" y2="286" gradientUnits="userSpaceOnUse">
<stop stop-color="#9387D9" stop-opacity="0"/>
<stop offset="1" stop-color="#7D70C7" stop-opacity="0.7"/>
</linearGradient>
<linearGradient id="paint7_linear_1068_5345" x1="205" y1="303.5" x2="216" y2="320" gradientUnits="userSpaceOnUse">
<stop stop-color="#7D70C7" stop-opacity="0.7"/>
<stop offset="1" stop-color="#9387D9" stop-opacity="0"/>
</linearGradient>
<linearGradient id="paint8_linear_1068_5345" x1="239" y1="380.643" x2="257.5" y2="415.643" gradientUnits="userSpaceOnUse">
<stop stop-color="#A593E4"/>
<stop offset="1" stop-color="#9984E1"/>
</linearGradient>
</defs>
</svg>
