<svg width="402" height="784" viewBox="0 0 402 784" fill="none" xmlns="http://www.w3.org/2000/svg">
<rect y="4" width="402" height="442" fill="url(#paint0_linear_984_5427)" fill-opacity="0.82"/>
<path d="M184.972 146.756C184.524 145.94 183.633 145.476 183.967 144.479C185.127 144.937 185.072 145.206 185.914 146.269L184.972 146.756Z" fill="#E8E2F1"/>
<g filter="url(#filter0_d_984_5427)">
<path d="M201.5 137C364.148 137 496 232.811 496 351C496 412.189 460.658 467.378 404 506.381V784H-3V504.992C-58.4891 466.074 -93 411.466 -93 351C-93 232.811 38.8521 137 201.5 137Z" fill="url(#paint1_radial_984_5427)"/>
</g>
<path d="M335.078 313.676C340.668 313.225 348.843 314.711 353.543 317.765L353.921 317.862C357.882 320.584 356.398 328.496 357.318 333.554C360.238 338.022 356.537 337.617 357.318 342.921L361.725 351.184C363.009 350.64 364.73 348.912 366.611 346.6C366.645 349.987 366.388 353.499 365.565 355.656C370.777 358.091 367.807 356.032 369.989 361.101C371.255 364.051 375.328 372.855 377 375.248C377.012 375.29 377.025 375.335 377.04 375.378C378.964 377.353 384.249 386.927 385.875 389.701C389.541 395.95 393.437 402.097 397.42 408.177C398.967 410.537 400.912 414.039 402.541 416.343L402.542 416.989L402.499 417.888C402.048 423.668 402.402 435.834 402.408 441.961L402.457 485.513C402.46 488.277 402.739 509.928 402.052 510.567L401.967 508.796C397.799 507.751 388.907 501.382 385.297 498.573C364.399 482.308 354.265 458.828 344.711 434.904C340.059 423.261 336.503 411.28 332.444 399.428C332.429 399.201 331.349 394.866 331.216 394.297C330.368 390.658 329.8 387.565 329.406 383.847C329.323 383.061 329.437 380.418 328.668 380.384C327.612 379.585 326.915 383.241 326.319 381.831C325.187 381.676 324.103 381.452 322.98 381.234C322.62 380.701 321.576 379.696 321.262 379.148C320.565 377.937 319.769 376.448 319.134 375.222C318.089 373.215 317.203 374.238 314.924 373.445C312.718 372.676 311.994 370.66 311.011 368.68C306.029 358.648 324.825 353.939 328.669 344.022C330.064 340.411 325.051 326.735 326.319 323.087C327.121 320.898 318.332 321.952 319.188 319.645L321.746 317.741L322.999 317.045C324.445 316.303 325.178 316.022 326.709 315.48L327.95 315.005C330.138 314.333 332.384 314.015 334.641 313.634L335.078 313.676ZM402.581 320.339C402.391 320.661 402.185 320.85 401.846 321.024C402.154 320.796 402.334 320.499 402.563 319.948C402.57 320.077 402.574 320.208 402.581 320.339Z" fill="#FFE4B7"/>
<path opacity="0.35" d="M335.078 313.676C340.668 313.225 348.842 314.711 353.543 317.766L353.921 317.863C357.882 320.584 356.398 328.496 357.318 333.555C360.238 338.023 356.537 337.617 357.318 342.92L361.725 351.185C363.009 350.64 364.73 348.913 366.611 346.601C366.645 349.988 366.388 353.499 365.565 355.656C370.777 358.091 367.807 356.032 369.989 361.101C371.255 364.05 375.328 372.856 377 375.248C377.012 375.291 377.024 375.336 377.04 375.378C378.963 377.353 384.249 386.928 385.875 389.701C389.541 395.951 393.438 402.097 397.421 408.177C398.968 410.536 400.912 414.039 402.541 416.343L402.542 416.989L402.5 417.888C402.049 423.667 402.403 435.834 402.409 441.961L402.457 485.514C402.46 488.279 402.738 509.925 402.051 510.567L401.966 508.796C397.799 507.752 388.907 501.383 385.296 498.573C364.398 482.308 354.265 458.829 344.711 434.905C340.059 423.262 336.503 411.28 332.444 399.428C332.428 399.197 331.349 394.866 331.215 394.297C330.368 390.658 329.799 387.564 329.406 383.847C329.323 383.061 329.436 380.417 328.668 380.384C327.612 379.586 326.915 383.241 326.319 381.831C325.187 381.677 324.103 381.453 322.98 381.235C322.62 380.702 321.576 379.697 321.261 379.149C320.565 377.938 319.769 376.449 319.133 375.223C318.089 373.216 317.202 374.239 314.923 373.446C312.717 372.677 311.994 370.661 311.01 368.681C306.029 358.649 324.825 353.94 328.669 344.023C330.064 340.411 325.051 326.734 326.319 323.086C327.12 320.898 318.332 321.952 319.188 319.646L321.746 317.741L322.999 317.045C324.445 316.303 325.178 316.022 326.71 315.48L327.95 315.005C330.138 314.333 332.384 314.015 334.641 313.634L335.078 313.676ZM402.581 320.338C402.39 320.662 402.183 320.853 401.841 321.028C402.152 320.799 402.332 320.502 402.563 319.948C402.57 320.077 402.574 320.207 402.581 320.338Z" fill="url(#paint2_linear_984_5427)"/>
<path d="M368.742 361.653C370.473 365.976 373.221 373.323 375.18 377.295C376.39 377.525 378.031 377.697 378.984 378.36L379.205 378.863C378.049 378.396 375.652 378.042 374.402 377.891C373.176 374.727 368.706 364.943 368.213 362.364L368.742 361.653Z" fill="#FBCE81"/>
<path d="M355.268 355.216C355.464 355.343 355.664 355.47 355.861 355.594C357.141 358.74 361.402 368 362.138 370.579C360.967 370.621 355.219 356.941 355.268 355.216Z" fill="#FBCE81"/>
<path d="M374.935 377.892C374.944 377.754 374.952 377.617 374.96 377.479C374.416 377.4 373.829 377.335 373.281 377.283C371.022 377.077 368.766 377.051 366.512 377.169C358.634 377.612 350.739 378.913 343.373 381.801C342.851 382.008 342.327 382.227 341.813 382.453C341.865 382.58 341.917 382.708 341.969 382.835C342.49 382.64 343.019 382.451 343.546 382.272C350.971 379.79 358.774 378.709 366.57 378.269C368.799 378.153 371.021 378.032 373.263 377.944C373.807 377.922 374.391 377.905 374.935 377.892Z" fill="#FBCE81"/>
<path d="M362.751 339.063C364.514 340.386 366.424 339.614 367.158 339.063V334.105L365.506 328.044L362.751 331.901C362.016 333.738 360.988 337.741 362.751 339.063Z" fill="#F2D39F"/>
<path d="M353.365 316.692C349.02 315.392 346.128 314.639 341.486 314.239C339.648 314.084 336.201 314.151 334.794 313.971L334.166 314.058C331.24 314.479 328.159 314.949 325.331 315.811L324.535 316.129C322.762 316.882 321.422 317.497 319.716 318.388C318.457 319.863 318.062 320.864 317.412 322.709C317.92 323.481 318.511 324.439 319.056 325.162C320.29 329.48 317.385 334.343 315.576 338.098C314.152 341.015 312.984 344.049 312.086 347.167C308.558 359.57 307.778 378.116 313.01 390.121C314.033 392.471 316.449 395.454 319.319 393.764L320.618 393.14C320.852 397.206 321.294 402.088 324.415 405.097C326.127 406.748 328.718 405.672 330.052 404.108L330.434 403.996C330.902 405.236 330.843 406.892 331.515 408.271C334.127 413.646 339.397 412.703 340.977 407.131C341.88 408.246 342.164 408.336 342.916 409.585C344.136 412.757 346.361 406.931 346.773 410.211C347.414 409.78 349.322 408.918 350.078 408.271C351.848 404.33 351.801 408.181 353.384 404.108L359.444 362.754L366.328 377.128C374.873 378.732 369.913 361.101 370.465 353.388C366.608 339.614 368.873 345.036 363.834 337.476L364.112 331.989C364.433 330.085 366.084 329.341 365.892 326.707C365.769 325.003 363.877 323.444 362.681 322.317L361.857 321.575C359.065 319.429 357.373 318.574 354.135 317.169L353.365 316.692Z" fill="#F4BBAC"/>
<path d="M366.327 377.127C363.116 369.993 360.951 363.215 360.611 355.288C359.46 359.935 358.238 365.128 357.599 369.864L355.089 389.477C354.516 393.761 353.847 400.075 352.292 404.051C351.592 405.857 350.282 407.361 348.588 408.303C347.033 409.187 343.78 409.746 343.083 407.49C339.716 396.6 346.118 372.405 342.184 362.622C342.185 373.94 341.54 385.11 341.175 396.411C341.071 399.646 340.638 403.925 340.626 406.932L340.977 407.131C341.879 408.246 342.474 408.962 343.227 410.211C347.796 411.545 352.468 408.107 353.495 404.016C356.632 391.517 358.114 376.889 359.809 364.118C361.402 368.54 362.986 374.452 365.847 378.211L366.327 377.127Z" fill="#F49F89"/>
<path d="M330.434 403.996C331.089 403.234 331.078 403.193 331.042 402.101C330.645 389.88 330.751 377.67 331.167 365.455C331.191 364.762 330.865 363.524 330.67 362.841C328.901 373.7 329.646 385.478 329.612 396.489C329.608 397.721 329.68 403.166 330.053 404.109L330.434 403.996Z" fill="#F49F89"/>
<path d="M320.617 393.14C320.848 391.056 320.602 388.605 320.517 386.491C320.307 381.27 320.022 376.076 320.325 370.849C320.472 368.324 320.755 365.346 320.061 362.906L319.782 363.009C318.608 368.283 318.842 377.554 319.185 383.114C319.396 386.527 319.807 390.378 319.318 393.764L320.617 393.14Z" fill="#F49F89"/>
<path d="M316.721 309.959C336.932 272.159 353.92 266.649 369.989 256.732C379.925 251.834 402.472 238 402.472 238L402.484 278.861C402.475 288.928 402.305 299.384 402.52 309.423C402.526 312.777 403.473 317.878 403.597 321.193C403.161 322.237 391.124 320.727 389.823 321.193C388.721 323.948 384.941 326.044 378.804 326.392C376.243 330.684 376.049 330.248 376.049 330.248L366.132 339.064C365.351 333.76 366.132 332.452 365.03 329.698C365.581 329.147 357.882 320.584 353.92 317.863L353.542 317.766C348.842 314.711 340.667 313.225 335.077 313.676L334.641 313.634C332.384 314.015 330.138 314.333 327.95 315.005L326.709 315.48C325.177 316.022 324.445 316.304 322.998 317.045L321.745 317.742L319.188 319.646C318.332 321.953 318.45 321.999 317.648 324.188C314.839 318.621 315.465 316.295 316.87 310.655L316.721 309.959Z" fill="#FFE4B7"/>
<path opacity="0.4" d="M390.11 321.287C391.183 312.438 383.849 301.254 380.048 296.768L374.983 293.053C371.787 289.175 392.918 271.052 403.883 262.475L406.172 285.008L412.983 291.981C411.223 301.217 408.495 320.437 404.995 321.418C401.53 322.389 393.226 321.588 390.2 321.296L390.11 321.287Z" fill="url(#paint3_linear_984_5427)"/>
<path d="M389.903 321.276C390.041 321.283 390.178 321.291 390.316 321.298C390.394 320.713 390.452 320.134 390.491 319.562C390.647 317.239 390.482 314.883 389.971 312.595C388.215 304.538 382.839 297.563 376.019 293.209C375.541 292.908 375.022 292.597 374.513 292.336C374.448 292.457 374.384 292.579 374.319 292.701C374.785 292.973 375.289 293.308 375.741 293.627C382.234 298.254 387.204 305.092 388.895 312.835C389.387 315.039 389.691 317.281 389.83 319.56C389.864 320.12 389.889 320.692 389.903 321.276Z" fill="#FBCE81"/>
<path d="M316.869 310.655C318.255 310.019 319.445 308.705 320.686 307.694C323.972 305.025 325.746 304.025 329.647 302.404C328.076 306.656 326.736 310.912 326.708 315.48C325.177 316.022 324.445 316.304 322.998 317.045L321.745 317.742L319.188 319.646C318.331 321.953 318.451 321.999 317.649 324.188C314.84 318.621 315.465 316.295 316.869 310.655Z" fill="#FFE4B7"/>
<path d="M331.083 302.086C333.359 301.231 335.868 300.816 338.262 300.337C336.164 305.641 335.414 308.085 334.642 313.634C332.384 314.015 330.138 314.333 327.95 315.005C327.911 310.507 328.985 306.068 331.083 302.086Z" fill="#FFE4B7"/>
<path d="M323.822 306.216C323.679 309.965 322.932 313.044 322.998 317.046L321.745 317.742C321.54 313.589 322.59 310.08 323.822 306.216Z" fill="#FBCE81"/>
<path d="M316.721 309.958C322.977 303.392 329.614 300.23 338.897 299.664C339.224 299.645 339.55 299.738 339.865 299.814L339.805 300.444C339.723 300.506 339.638 300.565 339.56 300.63C337.58 302.242 335.991 310.827 335.077 313.676L334.641 313.633C335.413 308.085 336.164 305.64 338.261 300.337C335.867 300.816 333.358 301.231 331.082 302.086C328.985 306.068 327.91 310.506 327.95 315.005L326.709 315.48C326.736 310.912 328.077 306.656 329.648 302.404C325.747 304.025 323.973 305.024 320.686 307.694C319.445 308.705 318.256 310.019 316.87 310.655L316.721 309.958Z" fill="#FBCE81"/>
<path d="M353.543 317.766C353.619 317.281 358.604 307.543 359.173 306.668L359.841 307.119C359.86 308.557 355.075 316.407 353.922 317.863L353.543 317.766Z" fill="#FBCE81"/>
<path d="M362.142 325.683C362.231 325.788 362.32 325.894 362.408 325.999C362.614 325.886 362.825 325.762 363.026 325.639C363.842 325.141 364.604 324.583 365.315 323.962C367.768 321.755 370.284 319.578 372.111 316.69C372.229 316.467 372.336 316.248 372.393 315.974C372.259 315.941 372.126 315.907 371.992 315.874C371.928 316.058 371.813 316.243 371.683 316.427C369.663 318.904 367.021 320.951 364.59 323.132C363.884 323.749 363.222 324.414 362.599 325.135C362.445 325.313 362.288 325.5 362.142 325.683Z" fill="#FBCE81"/>
<path d="M365.999 339.457C366.088 339.562 366.176 339.667 366.265 339.773C366.489 339.644 366.72 339.503 366.942 339.362C367.833 338.795 368.673 338.161 369.456 337.467C372.168 335.001 374.916 332.556 377.015 329.428C377.152 329.188 377.282 328.955 377.351 328.646C377.218 328.612 377.084 328.579 376.95 328.546C376.882 328.744 376.743 328.952 376.595 329.153C374.295 331.886 371.414 334.201 368.725 336.642C367.947 337.332 367.21 338.071 366.513 338.859C366.339 339.055 366.163 339.259 365.999 339.457Z" fill="#FBCE81"/>
<path d="M341.369 300.293C341.349 300.429 341.33 300.565 341.31 300.702C342.083 300.858 342.858 301.028 343.625 301.21C346.699 301.936 349.712 302.846 352.663 303.929C362.905 307.711 372.566 314.42 377.622 324.322C377.979 325.024 378.308 325.738 378.612 326.467C378.74 326.417 378.868 326.366 378.996 326.316C378.717 325.566 378.41 324.829 378.074 324.103C373.301 313.843 363.479 306.735 353.043 302.894C350.035 301.79 346.912 301.004 343.747 300.56C342.957 300.449 342.161 300.359 341.369 300.293Z" fill="#FBCE81"/>
<path d="M349.604 302.15C348.135 304.537 344.976 310.304 344.094 314.271" stroke="#FBCE81" stroke-width="0.771327"/>
<path d="M166.035 291.199C165.853 287.932 166.424 283.192 166.741 279.84L168.317 263.235C168.964 256.016 169.652 248.801 170.379 241.59C170.752 237.893 171.054 234.131 171.661 230.471C172.225 227.064 175.732 225.284 178.903 225.167C185.98 224.907 193.094 225.059 200.183 225.061C205.935 225.063 211.772 224.849 217.502 225.211C225.421 225.862 224.579 233.887 225.047 239.771L226.31 255.433C227.585 269.343 229.678 279.146 229.338 293.099C229.338 293.099 213.518 301.882 219.8 302.073C220.131 302.071 220.319 302.071 220.319 302.071C220.131 302.077 219.959 302.078 219.8 302.073C217.903 302.081 211.319 302.11 208.677 302.124L186.758 302.11C182.879 302.121 174.129 302.537 170.853 301.269C166.068 300.374 166.018 294.887 166.035 291.199Z" fill="#988ED8"/>
<path d="M170.222 295.221C170.752 295.372 171.29 295.5 171.834 295.599C174.917 296.142 187.136 295.905 191.052 295.934C197.991 296.004 204.932 296.022 211.872 295.993C216.041 295.985 222.63 296.749 226.06 294.526C230.655 291.549 228.203 287.006 228.769 283.343L229.073 283.512C229.711 292.381 231.767 300.987 220.32 302.071C217.517 301.858 211.781 302.108 208.678 302.124L186.758 302.111C182.88 302.122 174.129 302.537 170.853 301.269C166.069 300.374 166.019 294.888 166.036 291.199C167.53 292.957 168.14 294.093 170.222 295.221Z" fill="#6B63BA"/>
<g filter="url(#filter1_i_984_5427)">
<path d="M203.024 272.595C203.101 271.047 204.379 269.832 205.929 269.832H217.846C219.396 269.832 220.673 271.047 220.751 272.595L221.429 286.168C221.512 287.829 220.188 289.221 218.525 289.221H205.25C203.587 289.221 202.262 287.829 202.345 286.168L203.024 272.595Z" fill="#F2F0FF"/>
</g>
<circle cx="215" cy="285" r="3" fill="url(#paint4_radial_984_5427)" fill-opacity="0.75"/>
<circle cx="215" cy="277" r="3" fill="url(#paint5_radial_984_5427)" fill-opacity="0.75"/>
<circle cx="208" cy="280" r="2" fill="url(#paint6_radial_984_5427)" fill-opacity="0.75"/>
<path d="M225.666 363.228C231.367 362.599 237.975 362.885 243.799 362.658C248.764 362.464 254.535 362.279 259.451 362.686C267.183 363.331 268.658 370.475 270.912 376.503C272.715 381.352 274.544 386.193 276.398 391.02C282.222 405.884 287.94 420.789 293.558 435.731C295.139 439.883 297.711 446.332 299.003 450.569C299.55 452.361 297.569 458.69 296.506 460.423C296.369 460.717 296.296 460.884 296.119 461.159C294.995 462.901 293.234 464.129 291.214 464.579C288.345 465.209 281.657 465.577 278.483 465.78C271.47 466.231 264.453 466.645 257.436 467.022C250.901 467.399 243.293 469.122 237.564 465.566C233.01 462.74 232.388 458.672 231.005 453.917L227.359 441.472L221.823 423.092C220.928 420.164 219.435 415.842 218.798 412.994C218.155 411.692 215.196 401.405 214.701 399.599C213.913 397.259 213.178 394.899 212.504 392.522L211.61 389.965L211.31 389.006L210.858 387.41L210.267 385.476C210.14 385.188 209.577 383.02 209.462 382.596C208.941 380.971 207.542 377.229 207.688 375.604C208.875 362.343 215.243 363.412 225.666 363.228Z" fill="#998ED8"/>
<g filter="url(#filter2_i_984_5427)">
<path d="M236.439 372.206C235.751 370.449 234.043 369.305 232.156 369.339L220.421 369.549C218.888 369.577 217.828 371.091 218.327 372.54L224.343 390.012C224.865 391.529 226.327 392.52 227.93 392.443L240.922 391.817C242.463 391.742 243.477 390.177 242.914 388.74L236.439 372.206Z" fill="#F2F0FF"/>
</g>
<ellipse cx="2.84947" cy="2.77892" rx="2.84947" ry="2.77892" transform="matrix(-0.94061 0.339488 -0.374457 -0.927244 228.691 381.154)" fill="url(#paint7_radial_984_5427)" fill-opacity="0.75"/>
<ellipse cx="2.84947" cy="2.77892" rx="2.84947" ry="2.77892" transform="matrix(-0.94061 0.339488 -0.374457 -0.927244 231.466 388.026)" fill="url(#paint8_radial_984_5427)" fill-opacity="0.75"/>
<ellipse cx="1.89964" cy="1.85262" rx="1.89964" ry="1.85262" transform="matrix(-0.94061 0.339488 -0.374457 -0.927244 235.441 382.656)" fill="url(#paint9_radial_984_5427)" fill-opacity="0.75"/>
<path d="M225.667 363.227C220.133 364.1 211.918 361.833 209.803 369.084C210.476 372.082 211.298 374.727 212.115 377.614C212.824 380.123 214.082 382.497 214.675 385.176L214.988 386.314L215.957 389.724L216.563 391.402L217.366 394.343C217.369 394.341 217.371 394.338 217.374 394.336C217.426 394.543 217.708 395.478 218.894 399.101C220.205 403.099 221.363 407.244 222.785 411.229L223.323 413.553L223.178 413.4C221.858 412.001 222.346 410.034 220.337 409.536C222.344 410.035 221.856 412.002 223.175 413.401L223.322 413.553C225.669 421.306 228.189 429.05 230.455 436.818C231.645 440.971 232.88 445.111 234.162 449.237C235.654 454.149 235.913 457.476 240.929 460.02C242.604 460.869 244.727 461.534 246.669 461.653C262.273 460.924 278.466 460.449 293.969 458.887C295.211 458.762 297.218 456.772 298.018 455.908C297.556 457.21 296.813 459.129 296.506 460.423C296.37 460.717 296.296 460.884 296.119 461.159C294.995 462.901 293.234 464.129 291.213 464.58C288.345 465.209 281.657 465.578 278.483 465.78C271.47 466.232 264.453 466.645 257.436 467.022C250.901 467.399 243.293 469.122 237.565 465.566C233.01 462.74 232.388 458.672 231.006 453.917L227.36 441.473L221.823 423.092C220.929 420.164 219.434 415.841 218.798 412.994L218.799 412.991C218.153 411.676 215.197 401.403 214.703 399.599C214.758 399.541 214.81 399.48 214.86 399.418C214.808 399.478 214.757 399.54 214.701 399.599C213.912 397.26 213.179 394.899 212.504 392.521L212.503 392.521L211.61 389.964L211.31 389.007L210.858 387.41L210.267 385.476C210.14 385.189 209.577 383.02 209.461 382.595C208.94 380.971 207.543 377.229 207.688 375.603C208.876 362.343 215.243 363.411 225.667 363.227ZM218.744 411.197C218.813 411.236 221.371 412.655 221.495 412.761L221.496 412.761C221.429 412.706 220.816 412.356 220.186 412.002L218.744 411.197Z" fill="#6B63BA"/>
<path d="M274.892 461.82C275.722 462.076 275.451 461.827 275.836 462.456C275.67 464.642 273.408 464.628 271.597 464.761C268.953 464.956 266.273 465.071 263.625 465.214C263.272 465.239 263.249 465.174 262.88 465.049L262.765 464.473C263.092 463.176 263.81 462.701 265.109 462.516C268.241 462.07 271.744 461.984 274.892 461.82Z" fill="#544CA3"/>
<path d="M0.0567588 238C2.22783 240.609 4.2443 243.011 6.23642 245.759C14.5161 256.305 22.8632 266.798 31.2775 277.238C45.9475 295.135 63.2793 314.518 73.1135 335.483C80.3173 350.842 77.8307 369.19 69.0911 383.237C66.811 387.011 67.4151 388.36 63.8887 392.258C63.9498 390.344 63.9435 389.29 63.3166 387.499C62.0757 386.081 61.0702 385.046 59.7192 383.73L59.1055 383.158C56.83 381.37 54.1845 379.85 51.6634 378.429L51.1213 378.128C49.7733 377.794 46.6518 376.511 44.9194 376.003C40.5419 374.723 37.6362 374.386 33.2102 374.034L32.339 374.197C28.886 374.332 27.0396 374.513 23.7307 375.482L22.716 375.867C21.2257 376.472 18.9473 377.225 18.231 378.736C17.1236 381.072 18.3663 382.336 17.985 384.188C13.1479 380.609 14.067 376.96 14.5189 371.689L13.436 369.808C12.1387 366.478 11.9847 365.063 11.6674 361.465C7.58605 358.15 3.7909 354.991 0.0216064 351.327L0.0567588 238Z" fill="#F5C6FC"/>
<path opacity="0.52" d="M0.0567588 238C2.22783 240.609 4.2443 243.011 6.23642 245.759C14.5161 256.305 22.8632 266.798 31.2775 277.238C45.9475 295.135 63.2793 314.518 73.1135 335.483C80.3173 350.842 77.8307 369.19 69.0911 383.237C66.811 387.011 67.4151 388.36 63.8887 392.258C63.9498 390.344 63.9435 389.29 63.3166 387.499C62.0757 386.081 61.0702 385.046 59.7192 383.73L59.1055 383.158C56.83 381.37 54.1845 379.85 51.6634 378.429L51.1213 378.128C49.7733 377.794 46.6518 376.511 44.9194 376.003C40.5419 374.723 37.6362 374.386 33.2102 374.034L32.339 374.197C28.886 374.332 27.0396 374.513 23.7307 375.482L22.716 375.867C21.2257 376.472 18.9473 377.225 18.231 378.736C17.1236 381.072 18.3663 382.336 17.985 384.188C13.1479 380.609 14.067 376.96 14.5189 371.689L13.436 369.808C12.1387 366.478 11.9847 365.063 11.6674 361.465C7.58605 358.15 3.7909 354.991 0.0216064 351.327L0.0567588 238Z" fill="url(#paint10_linear_984_5427)"/>
<path opacity="0.52" d="M11.4631 361.271C9.27159 354.697 12.3762 338.078 14.2024 330.59L-11 316.346C-8.44328 324.746 -3.32983 342.424 -3.32983 345.931C-3.32983 349.437 6.5321 357.619 11.4631 361.271Z" fill="url(#paint11_linear_984_5427)"/>
<path d="M14.3989 329.554C14.2679 329.514 14.1368 329.474 14.0057 329.435C13.8101 329.922 13.6177 330.448 13.4441 330.948C12.7392 332.991 12.1936 335.081 11.7826 337.202C10.3964 344.593 9.67883 352.249 10.9397 359.726C11.0337 360.254 11.1417 360.79 11.2615 361.311C11.3958 361.284 11.5301 361.257 11.6644 361.23C11.5758 360.71 11.4981 360.177 11.4332 359.651C10.583 352.23 11.4879 344.725 12.8584 337.41C13.2649 335.312 13.6614 333.219 14.0785 331.121C14.1803 330.607 14.2921 330.063 14.3989 329.554Z" fill="#E5B2EC"/>
<path d="M13.436 369.808C24.2161 348.831 62.5645 354.588 70.3967 375.326C70.8048 376.409 71.0031 378.143 70.6164 379.221L70.2125 379.203C69.7289 378.27 69.7138 378.086 69.483 377.042C67.9237 378.574 67.5066 383.116 65.0264 384.516L64.8545 384.001C66.3536 381.361 67.2821 378.778 68.9644 375.895C67.45 372.457 66.74 371.138 64.4055 368.224C63.5213 372.803 61.9731 379.682 59.7192 383.73L59.1056 383.158C56.83 381.37 54.1845 379.85 51.6634 378.429L51.1214 378.128C49.7733 377.794 46.6518 376.512 44.9195 376.003C40.542 374.724 37.6362 374.386 33.2103 374.034L32.339 374.197C28.8861 374.332 27.0397 374.513 23.7308 375.482L22.716 375.868C21.2257 376.473 18.9473 377.225 18.231 378.736C17.1236 381.072 18.3663 382.337 17.9851 384.188C13.148 380.609 14.0671 376.96 14.519 371.689L13.436 369.808Z" fill="#E5B2EC"/>
<path d="M35.3576 357.988C43.5353 357.574 48.2167 358.502 55.5981 362.001C53.8805 366.966 52.3784 373.007 51.1216 378.128C49.7736 377.794 46.652 376.511 44.9197 376.002C40.5422 374.723 37.6364 374.386 33.2105 374.034C33.8383 368.88 34.4225 363.043 35.3576 357.988Z" fill="#F5C6FC"/>
<path d="M24.8298 360.65C28.5828 359 30.2155 358.749 34.2087 357.964C33.6534 363.618 32.5131 368.218 32.3394 374.197C28.8865 374.332 27.0401 374.513 23.7312 375.482C22.9548 373.709 24.5021 363.233 24.8298 360.65Z" fill="#F5C6FC"/>
<path d="M56.3113 362.504C59.5704 364.28 60.8856 365.138 63.5976 367.649C62.4524 373.016 60.2419 378.128 59.107 383.158C56.8314 381.37 54.1859 379.85 51.6648 378.429C53.2054 375.729 55.5782 365.84 56.3113 362.504Z" fill="#F5C6FC"/>
<path d="M23.6641 361.159C23.0559 364.979 22.4902 372.038 22.7163 375.867C21.2259 376.472 18.9476 377.225 18.2312 378.736C17.1238 381.072 18.3665 382.337 17.9853 384.188C13.1482 380.609 14.0673 376.96 14.5192 371.689C15.634 366.758 17.0594 365.256 21.4145 362.474C22.1504 362.014 22.9007 361.574 23.6641 361.159Z" fill="#F5C6FC"/>
<path d="M63.317 387.499C63.9439 389.29 63.9502 390.344 63.8891 392.258C63.1524 392.782 62.2742 393.447 61.5203 393.914C61.4971 391.945 62.5739 389.311 63.317 387.499Z" fill="#E6B7ED"/>
<path d="M33.2106 374.034C37.6365 374.386 40.5423 374.724 44.9198 376.003C46.6521 376.512 49.7737 377.794 51.1217 378.128L51.6637 378.429C54.1849 379.85 56.8303 381.37 59.1059 383.158L59.7196 383.73C61.0706 385.046 62.0761 386.081 63.3169 387.499C63.9438 389.29 63.9502 390.344 63.8891 392.259C63.1523 392.782 62.2741 393.448 61.5202 393.914C58.8645 397.418 59.7939 402.885 60.115 406.952C60.3814 410.119 60.3723 413.301 60.0876 416.465C58.9148 429.033 53.0584 446.234 44.0317 455.337C42.2659 457.119 39.0041 458.985 36.9844 456.426L36.0195 455.397C34.366 459.024 32.2331 463.323 28.3197 464.964C26.1729 465.864 24.1895 463.964 23.5252 462.065L23.2168 461.827C22.3502 462.793 21.8177 464.326 20.7162 465.346C16.4285 469.326 11.9535 466.598 12.4847 460.954C11.2661 461.652 10.4696 462.095 9.34048 462.968C7.10401 465.43 3.54803 469.16 2.01048 472.008C1.57857 471.388 0.535926 469.124 0.0747632 468.266C-0.144035 464.043 0.00990623 458.073 0.0078597 453.795L0.0312741 425.754L-0.0232296 424.595C0.138356 418.379 0.00915344 411.642 0.00313422 405.384C5.15086 398.069 9.01939 394.408 16.2954 389.293L17.9854 384.188C18.3666 382.337 17.1239 381.072 18.2314 378.736C18.9477 377.225 21.226 376.473 22.7164 375.867L23.7311 375.482C27.04 374.513 28.8864 374.332 32.3393 374.197L33.2106 374.034Z" fill="#F9C2B4"/>
<path d="M10.5326 415.032C7.55587 427.287 3.72807 441.161 2.16386 453.678C1.65183 457.775 4.69816 462.568 9.3406 462.968C7.10413 465.43 3.54816 469.16 2.01061 472.008C1.5787 471.388 0.536048 469.124 0.0748853 468.266C-0.143913 464.043 0.0100283 458.073 0.00798177 453.796L0.0313962 425.754C3.97368 423.337 7.51281 418.503 10.5326 415.032Z" fill="#F4BBAC"/>
<path d="M-0.0224609 424.596C5.43459 419.222 9.81087 413.804 12.9287 406.69C12.333 411.338 11.6088 416.51 10.5147 421.059L5.85898 439.846C4.86476 443.958 3.23938 449.958 3.2498 454.136C3.24947 456.032 3.91251 457.869 5.12409 459.329C6.23025 460.686 9.0005 462.348 10.4362 460.536C17.3653 451.791 20.0924 427.444 27.1467 419.909C23.1378 430.237 19.7703 440.659 16.1004 451.102C15.0503 454.091 13.9303 458.149 12.8763 460.897L12.4855 460.954C11.2668 461.653 10.4704 462.095 9.34125 462.968C4.69881 462.568 1.65248 457.775 2.1645 453.678C3.72872 441.162 7.55652 427.287 10.5332 415.032C7.51345 418.503 3.97433 423.337 0.0320428 425.755L-0.0224609 424.596Z" fill="#ED9D88"/>
<path d="M23.2163 461.827C22.8893 460.9 22.9136 460.867 23.3332 459.882C28.0234 448.871 32.2516 437.69 36.1978 426.396C36.4217 425.754 37.1569 424.74 37.5771 424.186C35.3452 434.722 30.4946 445.207 26.6254 455.268C26.1926 456.393 24.1984 461.336 23.5248 462.065L23.2163 461.827Z" fill="#ED9D88"/>
<path d="M36.0206 455.397C36.5482 453.413 37.6409 451.264 38.4668 449.364C40.5079 444.674 42.6071 440.035 44.1817 435.158C44.9423 432.801 45.7392 429.984 47.2362 428.003L47.4547 428.196C46.6574 433.424 43.1606 441.802 40.8784 446.754C39.4777 449.795 37.7385 453.163 36.9854 456.426L36.0206 455.397Z" fill="#ED9D88"/>
<path d="M0.0748967 468.266C0.536059 469.124 1.57871 471.388 2.01062 472.008C1.48463 473.546 0.867718 475.629 0.0311068 476.963C-0.109231 474.552 0.0418812 470.774 0.0748967 468.266Z" fill="#F5C6FC"/>
<path d="M406.249 32.3921C408.808 32.4007 411.353 32.4948 413.631 32.8315C425.164 34.5367 434.716 44.6662 436.279 56.1353C437.08 62.003 436.792 68.3908 436.789 74.2905L436.769 104.704L436.78 210.207L436.778 210.206L436.768 104.704L436.788 74.2905C436.791 68.3908 437.079 62.003 436.278 56.1353C434.715 44.6661 425.162 34.5366 413.629 32.8315C411.351 32.4949 408.808 32.4007 406.249 32.3921ZM110.81 32.4858C124.379 32.7537 138.964 32.4625 152.48 32.4751C156.791 32.4327 161.103 32.4439 165.413 32.5093L229.865 32.4702C233.597 32.441 237.329 32.4408 241.062 32.4683L289.656 32.4644C309.268 43.7365 320.544 65.1068 330.47 84.7837C343.379 110.376 360.357 151.771 345.004 179.499C340.692 185.974 334.07 189.971 326.404 191.318C304.906 195.094 281.922 190.38 260.706 186.595C257.292 185.986 244.735 183.313 242.414 183.364C243.622 186.808 242.823 189.57 238.739 190.011L236.409 189.737C237.366 191.252 238.259 193.855 235.942 194.691C229.24 197.535 220.651 191.711 214.362 191.48C203.04 191.064 196.062 191.947 184.975 187.66L184.923 187.863C184.399 189.813 183.809 191.513 181.626 192.202C175.711 194.069 169.743 195.023 163.574 196.276C132.522 202.584 96.6901 209.217 65.6885 199.75C56.5616 196.8 50.7882 190.914 46.8066 182.585L46.4277 181.771C44.9577 178.156 43.9323 174.376 43.376 170.513C38.9562 141.405 54.0552 109.703 66.7324 84.1606C73.2646 70.999 92.2112 35.3628 107.744 32.4868L108.11 32.4243L110.81 32.4858ZM17.4365 189.497H17.4375H17.4365ZM-21 34.6519V34.6528V34.6519ZM91.6064 32.563V32.562V32.563ZM75.0215 32.4595V32.4604V32.4595ZM377.757 32.4692V32.4702L289.656 32.4644H289.657L377.757 32.4692Z" fill="#867CCD"/>
<path opacity="0.19" d="M406.249 32.3921C408.808 32.4007 411.353 32.4948 413.631 32.8315C425.164 34.5367 434.716 44.6662 436.279 56.1353C437.08 62.003 436.792 68.3908 436.789 74.2905L436.769 104.704L436.78 210.207L436.778 210.206L436.768 104.704L436.788 74.2905C436.791 68.3908 437.079 62.003 436.278 56.1353C434.715 44.6661 425.162 34.5366 413.629 32.8315C411.351 32.4949 408.808 32.4007 406.249 32.3921ZM110.81 32.4858C124.379 32.7537 138.964 32.4625 152.48 32.4751C156.791 32.4327 161.103 32.4439 165.413 32.5093L229.865 32.4702C233.597 32.441 237.329 32.4408 241.062 32.4683L289.656 32.4644C309.268 43.7365 320.544 65.1068 330.47 84.7837C343.379 110.376 360.357 151.771 345.004 179.499C340.692 185.974 334.07 189.971 326.404 191.318C304.906 195.094 281.922 190.38 260.706 186.595C257.292 185.986 244.735 183.313 242.414 183.364C243.622 186.808 242.823 189.57 238.739 190.011L236.409 189.737C237.366 191.252 238.259 193.855 235.942 194.691C229.24 197.535 220.651 191.711 214.362 191.48C203.04 191.064 196.062 191.947 184.975 187.66L184.923 187.863C184.399 189.813 183.809 191.513 181.626 192.202C175.711 194.069 169.743 195.023 163.574 196.276C132.522 202.584 96.6901 209.217 65.6885 199.75C56.5616 196.8 50.7882 190.914 46.8066 182.585L46.4277 181.771C44.9577 178.156 43.9323 174.376 43.376 170.513C38.9562 141.405 54.0552 109.703 66.7324 84.1606C73.2646 70.999 92.2112 35.3628 107.744 32.4868L108.11 32.4243L110.81 32.4858ZM17.4365 189.497H17.4375H17.4365ZM-21 34.6519V34.6528V34.6519ZM91.6064 32.563V32.562V32.563ZM75.0215 32.4595V32.4604V32.4595ZM377.757 32.4692V32.4702L289.656 32.4644H289.657L377.757 32.4692Z" fill="url(#paint12_linear_984_5427)"/>
<path d="M169.607 147.92C167.088 153.319 163.237 170.055 167.988 193.809" stroke="#6B63BA" stroke-width="1.07974"/>
<path d="M170.153 139.981C174.245 136.052 185.788 135.61 191.102 136.733C194.474 140.057 195.416 143.019 195.823 147.739C193.068 148.502 186.559 150.636 184.165 150.601C184.068 150.431 183.958 150.268 183.838 150.113C182.59 148.486 172.36 147.54 169.639 147.093C169.538 144.745 169.784 142.298 170.153 139.981Z" fill="#8278C9"/>
<path opacity="0.52" d="M118.286 125.528L149.598 136.047L167.954 138.746L123.684 86.9187L118.286 125.528Z" fill="url(#paint13_linear_984_5427)"/>
<path d="M116.885 125.102C118.504 118.331 121.418 111.929 122.432 104.787C123.395 98.0095 121.759 89.968 122.07 83.7473C123.922 84.7004 123.563 99.2937 124.207 100.585C124.707 99.4746 125.037 98.887 125.157 97.6506C124.952 99.9712 124.566 101.61 124.069 103.867C123.397 106.558 122.13 111.184 122.057 113.834C121.393 117.094 119.837 119.878 119.301 123.718C120.39 124.17 120.812 123.819 122.113 124.19C120.562 124.424 118.333 124.695 116.885 125.102Z" fill="#6B63BA"/>
<path d="M169.851 139.152C172.505 134.993 189.882 134.544 194.087 135.969L194.276 136.188L192.516 136.439C193.043 137.307 193.851 138.197 194.194 138.837C195.578 141.424 196.049 144.668 196.733 147.494L195.823 147.739C195.417 143.019 194.474 140.057 191.102 136.733C185.788 135.61 174.245 136.052 170.154 139.981L169.851 139.152Z" fill="#6B63BA"/>
<path d="M97.9541 141.429L98.3219 141.757C97.9411 142.129 97.5719 142.446 97.2614 142.873C89.4827 143.595 85.8756 144.863 78.7681 145.907C80.5689 145.619 83.7911 143.615 86.8172 143.102C89.1061 142.715 96.5312 142.035 97.9541 141.429Z" fill="#6B63BA"/>
<path d="M124.069 103.866C124.444 106.288 124.706 108.752 125.071 111.117C125.398 113.229 126.728 115.56 126.678 117.973C126.117 117.44 124.874 113.785 124.616 112.9C123.991 112.967 123.943 113.039 123.366 113.315C123.165 112.39 123.055 111.971 123.021 111.034L122.058 113.834C122.13 111.184 123.398 106.558 124.069 103.866Z" fill="#7D74C6"/>
<path d="M97.9544 141.429C95.1328 139.651 91.577 139.16 88.5639 138.072L88.8966 137.906C91.4857 138.09 98.3965 139.528 100.56 140.838L101.004 139.916C101.207 140.545 101.404 141.291 101.707 141.858L103.036 142.879C101.06 142.822 99.2388 142.837 97.2616 142.873C97.5721 142.446 97.9413 142.129 98.3221 141.757L97.9544 141.429Z" fill="#6B63BA"/>
<path d="M185.567 182.376L185.513 182.637C182.728 183.218 170.285 184.754 167.714 184.552C168.637 183.665 183.564 182.34 185.567 182.376Z" fill="#6B63BA"/>
<path d="M184.777 163.959L184.679 164.208C181.836 164.299 169.314 163.665 166.817 163.022C167.879 162.308 182.811 163.578 184.777 163.959Z" fill="#6B63BA"/>
<path d="M167.354 153.157C167.354 153.265 167.354 153.373 167.354 153.481C167.572 153.517 167.804 153.55 168.027 153.579C168.929 153.696 169.831 153.76 170.729 153.77C173.878 153.823 177.051 153.742 180.166 153.906C180.385 153.926 180.631 153.952 180.778 154.004C180.826 153.907 180.875 153.81 180.923 153.714C180.671 153.594 180.454 153.565 180.219 153.517C177.062 153.033 173.9 152.96 170.739 152.907C169.838 152.897 168.933 152.948 168.028 153.061C167.805 153.089 167.572 153.121 167.354 153.157Z" fill="#6B63BA"/>
<path d="M171.133 141.82C171.133 141.928 171.133 142.036 171.133 142.144C171.538 142.18 171.968 142.213 172.381 142.244C174.052 142.369 175.725 142.453 177.389 142.493C183.212 142.708 189.14 142.616 194.803 143.772C195.175 143.88 195.608 144.022 195.848 144.251C195.927 144.178 196.007 144.105 196.086 144.032C195.748 143.681 195.31 143.54 194.921 143.397C189.165 141.898 183.261 141.848 177.41 141.629C175.74 141.589 174.06 141.621 172.384 141.726C171.969 141.753 171.539 141.784 171.133 141.82Z" fill="#6B63BA"/>
<path d="M183.911 173.677L183.788 174.071C180.888 174.485 168.216 174.706 165.739 173.95C166.887 172.743 181.948 173.276 183.911 173.677Z" fill="#6B63BA"/>
<path opacity="0.52" d="M281.866 134.427L273.768 109.053L269.449 97.1763L241.376 133.887L281.866 134.427Z" fill="url(#paint14_linear_984_5427)"/>
<path d="M272.179 103.468C272.618 103.691 272.737 104.69 272.837 105.18C274.81 114.569 278.451 124.147 281.797 133.185C286.601 133.271 294.069 134.081 298.683 135.325L298.745 135.507C293.725 135.573 286.657 134.221 280.931 134.141C274.887 133.591 268.487 133.673 262.656 133.16C266.704 132.314 278.472 134.147 281.144 133.339C280.616 131.148 279.074 127.965 278.718 126.627C277.633 122.582 271.708 106.707 272.179 103.468Z" stroke="#6B63BA" stroke-width="0.755815"/>
<path d="M205.122 134.762C205.137 134.896 205.152 135.03 205.167 135.165C205.87 135.13 206.604 135.092 207.324 135.052C210.211 134.896 213.078 134.708 215.957 134.476C226.007 133.712 236.103 132.962 246.163 133.393C246.886 133.432 247.61 133.482 248.311 133.545C248.326 133.411 248.341 133.277 248.356 133.143C247.652 133.049 246.925 132.97 246.2 132.902C236.094 132.077 225.946 132.634 215.87 133.399C212.984 133.632 210.12 133.965 207.257 134.408C206.542 134.519 205.816 134.638 205.122 134.762Z" fill="#6B63BA"/>
<path d="M225.18 36.549C225.18 36.657 225.18 36.7649 225.18 36.8729C225.331 36.9089 225.486 36.945 225.64 36.9808C226.249 37.1242 226.845 37.2551 227.442 37.3704C229.477 37.7817 231.726 38.5873 232.454 40.6175C232.504 40.7606 232.544 40.9014 232.578 41.0523C232.685 41.0374 232.792 41.0224 232.899 41.0074C232.887 40.8402 232.867 40.6806 232.834 40.5154C232.335 38.0873 229.75 36.9335 227.607 36.5224C226.967 36.3989 226.311 36.3775 225.663 36.4631C225.499 36.4845 225.337 36.513 225.18 36.549Z" fill="#6B63BA"/>
<path d="M167.485 37.6377C167.521 37.7398 167.556 37.8418 167.591 37.9438C167.46 38.0273 167.326 38.1119 167.192 38.1962C166.664 38.5308 166.143 38.8493 165.616 39.1537C163.827 40.2078 161.965 41.7045 161.941 43.8611C161.941 44.0127 161.949 44.1589 161.967 44.3124C161.861 44.3333 161.755 44.3541 161.649 44.3749C161.605 44.2132 161.572 44.0557 161.549 43.8889C161.227 41.4309 163.293 39.4953 165.184 38.406C165.747 38.0803 166.361 37.8455 167.001 37.7145C167.163 37.6811 167.326 37.655 167.485 37.6377Z" fill="#6B63BA"/>
<path d="M155.627 23.3954C155.567 23.2747 155.506 23.154 155.446 23.0333C154.804 23.4625 154.835 24.1255 154.748 24.6546C154.694 25.2074 154.697 25.7691 154.718 26.3105C154.764 27.4064 154.889 28.4918 155.044 29.5697C156.018 35.098 156.948 40.6058 160.009 45.6859C162.035 48.0334 164.219 50.2484 166.544 52.3071C176.308 60.9809 189.45 67.6411 202.889 65.322C216.338 63.0397 226.413 52.6579 233.543 41.7199C235.327 37.9434 235.51 33.8984 235.564 29.9077C235.443 27.7803 235.592 25.3739 233.944 23.5961C233.86 23.7015 233.776 23.8069 233.691 23.9123C235.056 25.3856 235.01 27.8402 235.073 29.9117C234.99 33.8006 234.666 37.9807 233.013 41.3694C225.806 52.1695 215.771 62.2437 202.73 64.3664C189.708 66.5458 176.89 60.0524 167.26 51.4987C164.971 49.4714 162.805 47.3018 160.782 45.012C158.038 40.5702 156.778 34.8249 155.684 29.4661C155.399 27.4443 154.729 24.8946 155.627 23.3954Z" fill="#6B63BA"/>
<path d="M218.201 44.6521C218.174 44.7568 218.148 44.8616 218.122 44.9663C218.259 45.0377 218.386 45.1091 218.513 45.1828C219.021 45.478 219.469 45.798 219.892 46.1513C221.405 47.4133 222.025 49.4713 222.623 51.5064C222.683 51.6602 222.702 51.7978 222.864 51.9856C222.941 51.9102 223.019 51.8348 223.096 51.7594C223.073 51.7192 223.027 51.5429 223.003 51.4058C222.716 49.3696 222.249 47.012 220.445 45.4885C219.943 45.0666 219.319 44.7871 218.681 44.6924C218.521 44.6683 218.364 44.6558 218.201 44.6521Z" fill="#6B63BA"/>
<path d="M174.849 44.4956C174.888 44.5961 174.928 44.6965 174.968 44.797C174.841 44.8856 174.724 44.973 174.608 45.0625C174.144 45.4213 173.741 45.7969 173.368 46.2023C172.031 47.6507 171.685 49.7718 171.357 51.8675C171.317 52.0278 171.317 52.1666 171.18 52.374C171.093 52.3093 171.007 52.2446 170.921 52.1799C170.938 52.137 170.961 51.9562 170.966 51.8172C170.986 49.7611 171.142 47.3627 172.732 45.6172C173.175 45.1336 173.757 44.7752 174.378 44.5981C174.533 44.5535 174.687 44.5206 174.849 44.4956Z" fill="#6B63BA"/>
<path d="M208.057 51.702C207.989 51.7857 207.921 51.8694 207.853 51.953C207.955 52.0826 208.059 52.2206 208.156 52.3539C208.55 52.8988 208.907 53.4465 209.294 53.9929C210.627 55.9127 211.746 58.027 212.828 60.1523C212.905 60.3059 212.983 60.4643 213.053 60.6073C213.154 60.5675 213.254 60.5277 213.354 60.4879C213.305 60.3308 213.248 60.1637 213.19 59.9993C212.387 57.7296 211.398 55.5104 210 53.495C209.594 52.9212 209.109 52.3984 208.516 51.9818C208.371 51.8811 208.213 51.7824 208.057 51.702Z" fill="#6B63BA"/>
<path d="M186.724 50.8087C186.639 50.768 186.554 50.7272 186.468 50.6865C186.354 50.8543 186.238 51.0407 186.132 51.2173C185.696 51.9475 185.333 52.6904 185.028 53.4733C183.98 56.2015 183.131 59.0459 182.949 61.9878C182.938 62.1952 182.93 62.4094 182.928 62.6163C183.023 62.6219 183.117 62.6276 183.211 62.6332C183.234 62.4317 183.261 62.2235 183.291 62.0224C183.74 59.1746 184.698 56.4406 185.732 53.7475C186.033 52.9756 186.297 52.2064 186.546 51.4023C186.605 51.2077 186.669 50.9982 186.724 50.8087Z" fill="#6B63BA"/>
<path d="M237.057 0C237.057 0 223.56 23.2143 224.639 25.9137C225.719 28.613 227.879 32.9319 225.179 37.7907C201.227 67.9854 171.193 43.1894 167.954 38.3306C164.715 33.4718 164.715 34.0117 165.795 27.5333C171.193 17.8156 164.715 3.49237 164.715 3.49237L237.057 0Z" fill="#A36C59"/>
<path opacity="0.5" d="M237.057 0C237.057 0 223.56 23.2143 224.639 25.9137C225.719 28.613 227.879 32.9319 225.179 37.7907C201.227 67.9854 171.193 43.1894 167.954 38.3306C164.715 33.4718 164.715 34.0117 165.795 27.5333C171.193 17.8156 164.715 3.49237 164.715 3.49237L237.057 0Z" fill="url(#paint15_linear_984_5427)"/>
<path d="M196.732 149.494C206.568 147.182 214.296 146.058 224.279 148.868C226.499 149.492 235.586 150.601 233.051 155.326C232.318 156.693 229.492 157.193 228.055 157.507L227.929 157.917C231.788 159.602 256.283 170.089 246.085 175.843L244.137 176.167C248.348 179.854 249.138 185.231 242.412 185.364C243.621 188.808 242.822 191.571 238.738 192.012L236.408 191.737C237.365 193.252 238.258 195.855 235.942 196.691C229.239 199.536 220.65 193.711 214.361 193.48C203.038 193.064 196.06 193.947 184.973 189.66C185.048 188.025 185.306 186.272 185.513 184.637L185.567 184.376C185.526 178.356 185.885 174.522 185.542 168.069L185.691 167.554C185.366 164.578 185.022 161.605 184.659 158.634L184.821 158.095C184.399 156.725 183.898 153.983 184.165 152.601C186.559 152.636 193.068 150.502 195.822 149.739L196.732 149.494Z" fill="#A36C59"/>
<path d="M221.764 165.327C226.277 166.206 234.524 170.244 238.825 172.274C240.855 173.232 244.073 175.494 246.085 175.844L244.137 176.167C243.465 176.054 239.357 173.64 238.336 173.064C233.02 170.064 226.657 168.935 221.764 165.327Z" fill="#6B3F35"/>
<path d="M218.338 184.461C222.166 185.141 236.777 189.87 238.739 192.012L236.408 191.737C231.185 189.497 222.581 186.973 218.338 184.461Z" fill="#6B3F35"/>
<path d="M212.743 152.397C214.114 152.633 227.44 156.922 228.054 157.507L227.928 157.917C224.425 157.78 215.808 154.2 212.743 152.397Z" fill="#6B3F35"/>
<path d="M221.801 175.348C225.514 175.953 240.727 182.123 242.543 184.946L241.586 184.95C237.761 182.762 234.202 181.113 230.14 179.445C228.196 178.647 222.722 176.806 221.801 175.348Z" fill="#6B3F35"/>
<path d="M122.114 126.19C140.382 123.385 145.53 128.567 161.494 136.614C163.454 137.601 168.132 140.648 169.851 141.152L170.154 141.982C169.784 144.298 169.538 146.745 169.64 149.093C160.768 147.724 148.144 146.697 139.25 146.578C128.829 146.439 120.212 147.55 109.66 145.888C107.494 145.713 105.122 145.454 103.036 144.879L101.707 143.859C101.404 143.292 101.208 142.545 101.004 141.917C103.029 138.737 105.147 138.235 108.602 137.031C108.082 136.796 107.568 136.547 107.062 136.284C106.17 135.814 105.28 134.905 105.137 133.93C104.474 129.399 114.478 127.553 116.886 127.103C118.334 126.695 120.563 126.425 122.114 126.19Z" fill="#A36C59"/>
<path d="M101.706 143.858L103.681 143.564C105.194 143.331 106.752 144.618 107.853 144.447C110.069 144.105 112.445 143.238 114.666 142.8C117.125 142.139 132.279 140.094 133.761 140.43C128.703 142.565 116.106 142.224 109.659 145.888C107.492 145.713 105.12 145.453 103.034 144.879L101.706 143.858Z" fill="#6B3F35"/>
<path d="M132.913 131.852L135.001 131.772L134.367 132.293C132.136 132.246 130.868 132.9 128.878 133.138C122.59 133.892 117.4 134.588 111.296 136.276C110.457 136.483 109.31 136.903 108.552 136.635C110.906 134.182 129.002 132.356 132.913 131.852Z" fill="#6B3F35"/>
<path d="M197.415 54.5042C197.31 54.5042 197.205 54.5042 197.1 54.5042C197.065 54.7054 197.033 54.9067 197.005 55.1079C196.893 55.913 196.837 56.7181 196.837 57.5231C196.837 60.3409 196.913 63.1586 197.066 65.9763C197.077 66.1776 197.088 66.3788 197.1 66.5801C197.205 66.5801 197.31 66.5801 197.415 66.5801C197.426 66.3788 197.437 66.1776 197.448 65.9763C197.601 63.1586 197.677 60.3409 197.677 57.5231C197.677 56.7181 197.621 55.913 197.509 55.1079C197.481 54.9067 197.45 54.7054 197.415 54.5042Z" fill="#6B63BA"/>
<path d="M91.1585 440.144C94.6406 434.436 97.3276 427.091 100.625 421.18C103.467 416.087 104.219 411.576 110.814 410.256C111.9 410.049 113.005 409.97 114.109 410.02C119.907 410.338 128.053 411.786 134.125 412.414C141.718 413.425 149.381 414.131 156.948 415.321C162.227 416.152 164.123 418.042 165.049 423.193C165.247 424.074 165.846 426.683 165.861 427.451C165.556 431.188 161.779 438.114 160.308 441.885C153.953 459.142 148.501 475.248 142.109 492.508C141.426 494.349 138.898 501.832 138.028 503.121C137.38 505.438 135.906 508.997 135.011 511.343C134.714 512.038 134.365 512.711 133.967 513.356C130.909 518.403 125.428 520.663 119.648 519.76C103.998 517.309 88.3679 514.645 72.7797 511.834C65.9558 510.601 65.4254 506.709 64.3816 500.89C63.7632 498.977 63.7579 496.918 64.3664 495.001C65.0509 492.8 70.0392 483.186 71.3551 480.55L85.6753 451.579C86.4456 449.496 90.0232 441.968 91.1585 440.144Z" fill="#958AD4"/>
<path d="M64.3805 500.889C65.8608 502.323 66.8387 504.602 68.9958 505.288C72.5334 506.415 76.3911 506.871 80.0508 507.478L99.884 510.751L112.225 512.861C122.756 514.664 127.147 515.297 133.333 505.633C133.759 507.468 134.544 509.528 135.01 511.342C134.713 512.038 134.364 512.711 133.966 513.356C130.908 518.403 125.427 520.663 119.647 519.76C103.997 517.309 88.3668 514.645 72.7786 511.834C65.9547 510.6 65.4243 506.709 64.3805 500.889Z" fill="#6B63BA"/>
<path d="M162.107 430.029L133.333 505.633L135.039 511.421C145.106 484.745 165.347 431.005 165.776 429.448C165.85 427.962 165.519 425.819 165.344 424.933L164.792 422.138L162.107 430.029Z" fill="#6B63BA"/>
<path d="M90.4925 510.91C89.6379 511.061 89.9369 510.847 89.477 511.423C89.3711 513.613 91.6173 513.88 93.3984 514.236C95.9979 514.756 98.6432 515.202 101.253 515.673C101.6 515.741 101.631 515.679 102.012 515.601L102.198 515.044C102.034 513.716 101.38 513.155 100.114 512.811C97.062 511.981 93.5961 511.462 90.4925 510.91Z" fill="#544CA3"/>
<g filter="url(#filter3_i_984_5427)">
<path d="M108.661 419.833C109.509 418.134 111.33 417.147 113.216 417.365L125.529 418.786C127.07 418.964 127.976 420.607 127.304 422.005L119.34 438.573C118.684 439.938 117.246 440.748 115.738 440.603L102.368 439.31C100.792 439.157 99.8593 437.473 100.566 436.056L108.661 419.833Z" fill="white"/>
</g>
<ellipse cx="2.84947" cy="2.77892" rx="2.84947" ry="2.77892" transform="matrix(0.850118 0.526593 -0.494404 0.869232 113.79 429.907)" fill="url(#paint16_radial_984_5427)" fill-opacity="0.75"/>
<ellipse cx="2.84947" cy="2.77892" rx="2.84947" ry="2.77892" transform="matrix(0.850118 0.526593 -0.494404 0.869232 117.454 423.465)" fill="url(#paint17_radial_984_5427)" fill-opacity="0.75"/>
<ellipse cx="1.89964" cy="1.85262" rx="1.89964" ry="1.85262" transform="matrix(0.850118 0.526593 -0.494404 0.869232 110.777 423.684)" fill="url(#paint18_radial_984_5427)" fill-opacity="0.75"/>
<g opacity="0.8" filter="url(#filter4_f_984_5427)">
<path d="M105.722 417.867C106.689 416.254 108.524 415.34 110.356 415.559L126.281 417.468C127.848 417.655 128.663 419.347 127.857 420.739L117.077 439.359C116.325 440.658 114.87 441.412 113.403 441.261L96.3305 439.511C94.7282 439.347 93.8907 437.612 94.734 436.205L105.722 417.867Z" fill="white"/>
</g>
<path opacity="0.85" d="M27.0578 428.613L105.459 438.373L112.475 423.808L56.8935 363.371L27.0578 428.613Z" fill="url(#paint19_linear_984_5427)"/>
<g filter="url(#filter5_f_984_5427)">
<path d="M27.0578 428.613L105.459 438.373L112.475 423.808L56.8936 363.371L27.0578 428.613Z" fill="url(#paint20_linear_984_5427)"/>
</g>
<defs>
<filter id="filter0_d_984_5427" x="-113" y="117" width="629" height="687" filterUnits="userSpaceOnUse" color-interpolation-filters="sRGB">
<feFlood flood-opacity="0" result="BackgroundImageFix"/>
<feColorMatrix in="SourceAlpha" type="matrix" values="0 0 0 0 0 0 0 0 0 0 0 0 0 0 0 0 0 0 127 0" result="hardAlpha"/>
<feOffset/>
<feGaussianBlur stdDeviation="10"/>
<feComposite in2="hardAlpha" operator="out"/>
<feColorMatrix type="matrix" values="0 0 0 0 0.203735 0 0 0 0 0.194515 0 0 0 0 0.381986 0 0 0 0.25 0"/>
<feBlend mode="normal" in2="BackgroundImageFix" result="effect1_dropShadow_984_5427"/>
<feBlend mode="normal" in="SourceGraphic" in2="effect1_dropShadow_984_5427" result="shape"/>
</filter>
<filter id="filter1_i_984_5427" x="202.342" y="269.832" width="19.0912" height="19.3892" filterUnits="userSpaceOnUse" color-interpolation-filters="sRGB">
<feFlood flood-opacity="0" result="BackgroundImageFix"/>
<feBlend mode="normal" in="SourceGraphic" in2="BackgroundImageFix" result="shape"/>
<feColorMatrix in="SourceAlpha" type="matrix" values="0 0 0 0 0 0 0 0 0 0 0 0 0 0 0 0 0 0 127 0" result="hardAlpha"/>
<feOffset dy="3.19922"/>
<feComposite in2="hardAlpha" operator="arithmetic" k2="-1" k3="1"/>
<feColorMatrix type="matrix" values="0 0 0 0 0.419608 0 0 0 0 0.388235 0 0 0 0 0.729412 0 0 0 1 0"/>
<feBlend mode="normal" in2="shape" result="effect1_innerShadow_984_5427"/>
</filter>
<filter id="filter2_i_984_5427" x="218.203" y="369.338" width="24.8687" height="23.1084" filterUnits="userSpaceOnUse" color-interpolation-filters="sRGB">
<feFlood flood-opacity="0" result="BackgroundImageFix"/>
<feBlend mode="normal" in="SourceGraphic" in2="BackgroundImageFix" result="shape"/>
<feColorMatrix in="SourceAlpha" type="matrix" values="0 0 0 0 0 0 0 0 0 0 0 0 0 0 0 0 0 0 127 0" result="hardAlpha"/>
<feOffset dx="-1.08314" dy="4.15203"/>
<feComposite in2="hardAlpha" operator="arithmetic" k2="-1" k3="1"/>
<feColorMatrix type="matrix" values="0 0 0 0 0.419608 0 0 0 0 0.388235 0 0 0 0 0.729412 0 0 0 1 0"/>
<feBlend mode="normal" in2="shape" result="effect1_innerShadow_984_5427"/>
</filter>
<filter id="filter3_i_984_5427" x="100.326" y="417.335" width="27.2023" height="23.2837" filterUnits="userSpaceOnUse" color-interpolation-filters="sRGB">
<feFlood flood-opacity="0" result="BackgroundImageFix"/>
<feBlend mode="normal" in="SourceGraphic" in2="BackgroundImageFix" result="shape"/>
<feColorMatrix in="SourceAlpha" type="matrix" values="0 0 0 0 0 0 0 0 0 0 0 0 0 0 0 0 0 0 127 0" result="hardAlpha"/>
<feOffset dx="0.902615" dy="4.06177"/>
<feComposite in2="hardAlpha" operator="arithmetic" k2="-1" k3="1"/>
<feColorMatrix type="matrix" values="0 0 0 0 0.419608 0 0 0 0 0.388235 0 0 0 0 0.729412 0 0 0 1 0"/>
<feBlend mode="normal" in2="shape" result="effect1_innerShadow_984_5427"/>
</filter>
<filter id="filter4_f_984_5427" x="84.1877" y="405.315" width="54.1976" height="46.1785" filterUnits="userSpaceOnUse" color-interpolation-filters="sRGB">
<feFlood flood-opacity="0" result="BackgroundImageFix"/>
<feBlend mode="normal" in="SourceGraphic" in2="BackgroundImageFix" result="shape"/>
<feGaussianBlur stdDeviation="5.10639" result="effect1_foregroundBlur_984_5427"/>
</filter>
<filter id="filter5_f_984_5427" x="22.9727" y="359.286" width="93.587" height="83.1717" filterUnits="userSpaceOnUse" color-interpolation-filters="sRGB">
<feFlood flood-opacity="0" result="BackgroundImageFix"/>
<feBlend mode="normal" in="SourceGraphic" in2="BackgroundImageFix" result="shape"/>
<feGaussianBlur stdDeviation="2.04256" result="effect1_foregroundBlur_984_5427"/>
</filter>
<linearGradient id="paint0_linear_984_5427" x1="201" y1="4" x2="201" y2="446" gradientUnits="userSpaceOnUse">
<stop stop-color="#9491D2"/>
<stop offset="0.153846" stop-color="#A8A5E5"/>
<stop offset="0.892784" stop-color="#D5D3F6"/>
</linearGradient>
<radialGradient id="paint1_radial_984_5427" cx="0" cy="0" r="1" gradientUnits="userSpaceOnUse" gradientTransform="translate(201 393) rotate(90) scale(391 538.082)">
<stop stop-color="#FCF2FF"/>
<stop offset="1" stop-color="#EAD6FD"/>
</radialGradient>
<linearGradient id="paint2_linear_984_5427" x1="382.487" y1="433.828" x2="351.509" y2="469.785" gradientUnits="userSpaceOnUse">
<stop stop-color="#FFE4B7"/>
<stop offset="1" stop-color="#EECA8E"/>
</linearGradient>
<linearGradient id="paint3_linear_984_5427" x1="392.528" y1="289.802" x2="387.689" y2="313.639" gradientUnits="userSpaceOnUse">
<stop stop-color="#FFE4B7"/>
<stop offset="1" stop-color="#EECA8E"/>
</linearGradient>
<radialGradient id="paint4_radial_984_5427" cx="0" cy="0" r="1" gradientUnits="userSpaceOnUse" gradientTransform="translate(215 285) rotate(90) scale(3)">
<stop stop-color="#9891DC"/>
<stop offset="1" stop-color="#6B63BA"/>
</radialGradient>
<radialGradient id="paint5_radial_984_5427" cx="0" cy="0" r="1" gradientUnits="userSpaceOnUse" gradientTransform="translate(215 277) rotate(90) scale(3)">
<stop stop-color="#9891DC"/>
<stop offset="1" stop-color="#6B63BA"/>
</radialGradient>
<radialGradient id="paint6_radial_984_5427" cx="0" cy="0" r="1" gradientUnits="userSpaceOnUse" gradientTransform="translate(208 280) rotate(90) scale(2)">
<stop stop-color="#9891DC"/>
<stop offset="1" stop-color="#6B63BA"/>
</radialGradient>
<radialGradient id="paint7_radial_984_5427" cx="0" cy="0" r="1" gradientUnits="userSpaceOnUse" gradientTransform="translate(2.84947 2.77892) rotate(90) scale(2.77892 2.84947)">
<stop stop-color="#9891DC"/>
<stop offset="1" stop-color="#6B63BA"/>
</radialGradient>
<radialGradient id="paint8_radial_984_5427" cx="0" cy="0" r="1" gradientUnits="userSpaceOnUse" gradientTransform="translate(2.84947 2.77892) rotate(90) scale(2.77892 2.84947)">
<stop stop-color="#9891DC"/>
<stop offset="1" stop-color="#6B63BA"/>
</radialGradient>
<radialGradient id="paint9_radial_984_5427" cx="0" cy="0" r="1" gradientUnits="userSpaceOnUse" gradientTransform="translate(1.89964 1.85262) rotate(90) scale(1.85262 1.89964)">
<stop stop-color="#9891DC"/>
<stop offset="1" stop-color="#6B63BA"/>
</radialGradient>
<linearGradient id="paint10_linear_984_5427" x1="21.7329" y1="306.064" x2="38.8786" y2="274.889" gradientUnits="userSpaceOnUse">
<stop stop-color="#F5C6FC"/>
<stop offset="1" stop-color="#E7B3EF"/>
</linearGradient>
<linearGradient id="paint11_linear_984_5427" x1="2.14886" y1="332.234" x2="12.0105" y2="344.287" gradientUnits="userSpaceOnUse">
<stop stop-color="#F5C6FC"/>
<stop offset="1" stop-color="#E7B3EF"/>
</linearGradient>
<linearGradient id="paint12_linear_984_5427" x1="27.4072" y1="82.9564" x2="350.305" y2="84.1091" gradientUnits="userSpaceOnUse">
<stop stop-color="#7066BA"/>
<stop offset="0.190695" stop-color="#867CCD"/>
<stop offset="0.839285" stop-color="#867CCD"/>
<stop offset="1" stop-color="#7066BA"/>
</linearGradient>
<linearGradient id="paint13_linear_984_5427" x1="142.04" y1="109.593" x2="117.872" y2="124.394" gradientUnits="userSpaceOnUse">
<stop stop-color="#867CCD"/>
<stop offset="1" stop-color="#7066BA"/>
</linearGradient>
<linearGradient id="paint14_linear_984_5427" x1="257.032" y1="115.532" x2="280.786" y2="134.967" gradientUnits="userSpaceOnUse">
<stop stop-color="#867CCD"/>
<stop offset="1" stop-color="#7066BA"/>
</linearGradient>
<linearGradient id="paint15_linear_984_5427" x1="198.187" y1="36.711" x2="197.647" y2="52.907" gradientUnits="userSpaceOnUse">
<stop stop-color="#A36C59"/>
<stop offset="1" stop-color="#955844"/>
</linearGradient>
<radialGradient id="paint16_radial_984_5427" cx="0" cy="0" r="1" gradientUnits="userSpaceOnUse" gradientTransform="translate(2.84947 2.77892) rotate(90) scale(2.77892 2.84947)">
<stop stop-color="#9891DC"/>
<stop offset="1" stop-color="#6B63BA"/>
</radialGradient>
<radialGradient id="paint17_radial_984_5427" cx="0" cy="0" r="1" gradientUnits="userSpaceOnUse" gradientTransform="translate(2.84947 2.77892) rotate(90) scale(2.77892 2.84947)">
<stop stop-color="#9891DC"/>
<stop offset="1" stop-color="#6B63BA"/>
</radialGradient>
<radialGradient id="paint18_radial_984_5427" cx="0" cy="0" r="1" gradientUnits="userSpaceOnUse" gradientTransform="translate(1.89964 1.85262) rotate(90) scale(1.85262 1.89964)">
<stop stop-color="#9891DC"/>
<stop offset="1" stop-color="#6B63BA"/>
</radialGradient>
<linearGradient id="paint19_linear_984_5427" x1="46.0069" y1="400.785" x2="116.225" y2="429.563" gradientUnits="userSpaceOnUse">
<stop stop-color="white" stop-opacity="0"/>
<stop offset="1" stop-color="white"/>
</linearGradient>
<linearGradient id="paint20_linear_984_5427" x1="43.8323" y1="388.457" x2="114.73" y2="430.348" gradientUnits="userSpaceOnUse">
<stop stop-color="white" stop-opacity="0"/>
<stop offset="1" stop-color="white"/>
</linearGradient>
</defs>
</svg>
