<svg xmlns="http://www.w3.org/2000/svg" fill="none" viewBox="0 15.378 272.60204081632656 218.08800000000002" style="max-height: 500px" width="272.60204081632656" height="218.08800000000002">
<rect fill="white" height="220" width="274" y="12.9177"/>
<g filter="url(#filter0_df_885_3798)">
<path fill="url(#paint0_linear_885_3798)" d="M6.02805 132.308C5.77269 128.478 7.15161 117.804 14.7101 105.751C17.6199 100.93 24.3151 91.8965 32.3294 85.7255C34.9376 83.6628 37.6196 81.9798 40.2454 80.982C44.1608 79.8755 53.9835 78.122 61.9505 79.9606C65.0148 80.3862 73.0329 83.5356 80.5914 92.7283C84.5068 98.3461 92.3377 113.872 92.3377 131.031C92.1674 137.33 88.4052 150.847 74.7182 154.524C64.9297 156.907 40.9093 160.142 23.1367 154.013C17.604 151.885 6.43652 144.565 6.02805 132.308Z"/>
<path fill-opacity="0.2" fill="url(#paint1_linear_885_3798)" d="M6.02805 132.308C5.77269 128.478 7.15161 117.804 14.7101 105.751C17.6199 100.93 24.3151 91.8965 32.3294 85.7255C34.9376 83.6628 37.6196 81.9798 40.2454 80.982C44.1608 79.8755 53.9835 78.122 61.9505 79.9606C65.0148 80.3862 73.0329 83.5356 80.5914 92.7283C84.5068 98.3461 92.3377 113.872 92.3377 131.031C92.1674 137.33 88.4052 150.847 74.7182 154.524C64.9297 156.907 40.9093 160.142 23.1367 154.013C17.604 151.885 6.43652 144.565 6.02805 132.308Z"/>
</g>
<ellipse fill="#FF7889" ry="3.87094" rx="7.40527" cy="117.759" cx="79.7979" opacity="0.5"/>
<ellipse fill="#FF7889" ry="3.87094" rx="7.40527" cy="117.759" cx="37.9189" opacity="0.5"/>
<circle fill="white" r="2.04283" cy="88.8634" cx="70.3495"/>
<circle fill="white" r="1.02142" cy="91.9277" cx="73.414"/>
<circle fill="white" r="0.510709" cy="86.3098" cx="67.2851"/>
<path stroke-linecap="round" stroke-width="1.53213" stroke="black" d="M54.5176 113.888C57.3265 120.017 62.4336 116.442 63.1996 113.888"/>
<ellipse fill="black" ry="3.83031" rx="3.57496" cy="109.037" cx="69.8386"/>
<ellipse fill="black" ry="3.83031" rx="3.57496" cy="109.037" cx="46.8562"/>
<circle fill="#D9D9D9" r="0.766063" cy="107.505" cx="70.6049"/>
<circle fill="#D9D9D9" r="0.766063" cy="107.505" cx="47.6225"/>
<g filter="url(#filter1_df_885_3798)">
<path fill="url(#paint2_linear_885_3798)" d="M266.972 145.076C267.227 141.246 265.848 130.572 258.29 118.519C255.38 113.698 248.685 104.665 240.671 98.4935C238.062 96.4308 235.38 94.7479 232.755 93.7501C228.839 92.6435 219.017 90.8901 211.049 92.7287C207.985 93.1543 199.967 96.3036 192.409 105.496C188.493 111.114 180.662 126.64 180.662 143.8C180.833 150.098 184.595 163.615 198.282 167.292C208.07 169.675 232.091 172.91 249.863 166.781C255.396 164.653 266.563 157.333 266.972 145.076Z"/>
<path fill-opacity="0.2" fill="url(#paint3_linear_885_3798)" d="M266.972 145.076C267.227 141.246 265.848 130.572 258.29 118.519C255.38 113.698 248.685 104.665 240.671 98.4935C238.062 96.4308 235.38 94.7479 232.755 93.7501C228.839 92.6435 219.017 90.8901 211.049 92.7287C207.985 93.1543 199.967 96.3036 192.409 105.496C188.493 111.114 180.662 126.64 180.662 143.8C180.833 150.098 184.595 163.615 198.282 167.292C208.07 169.675 232.091 172.91 249.863 166.781C255.396 164.653 266.563 157.333 266.972 145.076Z"/>
</g>
<ellipse fill="#FF7889" transform="matrix(-1 0 0 1 200.607 126.656)" ry="3.87094" rx="7.40527" cy="3.87094" cx="7.40527" opacity="0.5"/>
<ellipse fill="#FF7889" transform="matrix(-1 0 0 1 242.486 126.656)" ry="3.87094" rx="7.40527" cy="3.87094" cx="7.40527" opacity="0.5"/>
<circle fill="white" transform="matrix(-1 0 0 1 204.693 99.5886)" r="2.04283" cy="2.04283" cx="2.04283"/>
<circle fill="white" transform="matrix(-1 0 0 1 200.607 103.674)" r="1.02142" cy="1.02142" cx="1.02142"/>
<circle fill="white" transform="matrix(-1 0 0 1 206.226 98.5671)" r="0.510709" cy="0.510709" cx="0.510709"/>
<ellipse fill="black" ry="2.88196" rx="1.77352" cy="128.006" cx="214.61"/>
<ellipse fill="#BA1A1A" ry="2.30557" rx="1.33014" cy="128.006" cx="215.054"/>
<ellipse fill="black" transform="matrix(-1 0 0 1 206.736 117.974)" ry="3.83031" rx="3.57496" cy="3.83031" cx="3.57496"/>
<ellipse fill="black" transform="matrix(-1 0 0 1 229.719 117.974)" ry="3.83031" rx="3.57496" cy="3.83031" cx="3.57496"/>
<circle fill="#D9D9D9" transform="matrix(-1 0 0 1 203.161 119.506)" r="0.766063" cy="0.766063" cx="0.766063"/>
<circle fill="#D9D9D9" transform="matrix(-1 0 0 1 226.144 119.506)" r="0.766063" cy="0.766063" cx="0.766063"/>
<g filter="url(#filter2_df_885_3798)">
<path fill="url(#paint4_linear_885_3798)" d="M97.9558 89.9188C97.7004 86.0885 99.0793 75.4147 106.638 63.362C109.548 58.5402 116.243 49.507 124.257 43.3361C126.865 41.2734 129.547 39.5904 132.173 38.5926C136.089 37.4861 145.911 35.7326 153.878 37.5712C156.943 37.9968 164.961 41.1461 172.519 50.3389C176.435 55.9567 184.265 71.4822 184.265 88.642C184.095 94.9408 180.333 108.458 166.646 112.135C156.857 114.518 132.837 117.752 115.064 111.624C109.532 109.496 98.3643 102.176 97.9558 89.9188Z"/>
</g>
<ellipse fill="#FF7889" ry="3.87094" rx="7.40527" cy="80.9876" cx="165.597" opacity="0.5"/>
<ellipse fill="#FF7889" ry="3.87094" rx="7.40527" cy="80.9876" cx="123.719" opacity="0.5"/>
<circle fill="white" r="2.04283" cy="53.6239" cx="161.766"/>
<circle fill="white" r="1.02142" cy="56.6882" cx="164.831"/>
<circle fill="white" r="0.510709" cy="51.0705" cx="158.702"/>
<ellipse fill="black" ry="3.83031" rx="3.57496" cy="72.2651" cx="155.638"/>
<ellipse fill="black" ry="7.14992" rx="4.08567" cy="81.7127" cx="143.381"/>
<ellipse fill="#BA1A1A" ry="5.71994" rx="3.06425" cy="81.7129" cx="144.401"/>
<ellipse fill="black" ry="7.14992" rx="4.08567" cy="81.7124" cx="143.381"/>
<ellipse fill="#BA1A1A" ry="5.71994" rx="3.06425" cy="81.7126" cx="144.401"/>
<ellipse fill="black" ry="3.83031" rx="3.57496" cy="72.2651" cx="132.656"/>
<rect fill="#FAF7B8" transform="rotate(43.504 92.5703 49.4133)" rx="1.40593" height="2.81185" width="12.091" y="49.4133" x="92.5703"/>
<rect fill="#FAF7B8" transform="rotate(22.1176 87.083 57.2168)" rx="1.40593" height="2.81185" width="12.091" y="57.2168" x="87.083"/>
<rect fill="#FAF7B8" transform="rotate(4.57115 85.4717 65.9385)" rx="1.40593" height="2.81185" width="12.091" y="65.9385" x="85.4717"/>
<g filter="url(#filter3_d_885_3798)">
<ellipse fill="#E5E5EA" ry="41.6227" rx="61.1693" cy="141.722" cx="132.54"/>
</g>
<g filter="url(#filter4_df_885_3798)">
<path fill="url(#paint5_linear_885_3798)" d="M171.469 200.743C171.724 196.913 170.345 186.239 162.787 174.186C159.877 169.365 153.182 160.332 145.168 154.161C142.56 152.098 139.877 150.415 137.252 149.417C133.336 148.311 123.514 146.557 115.547 148.396C112.482 148.821 104.464 151.971 96.9057 161.163C92.9903 166.781 85.1594 182.307 85.1594 199.467C85.3296 205.765 89.0919 219.282 102.779 222.959C112.567 225.342 136.588 228.577 154.36 222.448C159.893 220.32 171.061 213 171.469 200.743Z"/>
<path fill-opacity="0.2" fill="url(#paint6_linear_885_3798)" d="M171.469 200.743C171.724 196.913 170.345 186.239 162.787 174.186C159.877 169.365 153.182 160.332 145.168 154.161C142.56 152.098 139.877 150.415 137.252 149.417C133.336 148.311 123.514 146.557 115.547 148.396C112.482 148.821 104.464 151.971 96.9057 161.163C92.9903 166.781 85.1594 182.307 85.1594 199.467C85.3296 205.765 89.0919 219.282 102.779 222.959C112.567 225.342 136.588 228.577 154.36 222.448C159.893 220.32 171.061 213 171.469 200.743Z"/>
</g>
<circle fill="white" transform="matrix(-1 0 0 1 109.191 155.255)" r="2.04283" cy="2.04283" cx="2.04283"/>
<circle fill="white" transform="matrix(-1 0 0 1 105.105 159.341)" r="1.02142" cy="1.02142" cx="1.02142"/>
<circle fill="white" transform="matrix(-1 0 0 1 110.724 154.234)" r="0.510709" cy="0.510709" cx="0.510709"/>
<g filter="url(#filter5_d_885_3798)">
<rect fill="#FF7800" transform="matrix(0.419323 -0.907837 0.913288 0.407315 80.9248 135.5)" rx="1.38389" height="19.1642" width="10.8857"/>
</g>
<g filter="url(#filter6_d_885_3798)">
<rect fill="#FF8D28" transform="matrix(0.419323 -0.907837 0.913288 0.407315 91.8477 139.532)" rx="1.38389" height="6.75451" width="9.18777"/>
</g>
<ellipse fill="black" transform="rotate(-79.1233 96.502 139.835)" ry="0.892539" rx="0.867045" cy="139.835" cx="96.502"/>
<ellipse fill="black" transform="rotate(-79.1233 94.3194 138.972)" ry="0.892539" rx="0.867045" cy="138.972" cx="94.3194"/>
<ellipse fill="black" transform="rotate(-79.1233 96.0069 137.522)" ry="0.892539" rx="0.867045" cy="137.522" cx="96.0069"/>
<ellipse fill="white" transform="matrix(-0.188697 0.982036 0.982036 0.188697 99.124 133.681)" ry="0.691943" rx="0.653355" cy="0.691943" cx="0.653355"/>
<g filter="url(#filter7_d_885_3798)">
<rect fill="#FF7800" transform="matrix(-0.225316 -0.974286 -0.986734 0.162347 184.475 140.176)" rx="1.38389" height="19.9344" width="10.2515"/>
</g>
<g filter="url(#filter8_d_885_3798)">
<rect fill="#FF8D28" transform="matrix(-0.225316 -0.974286 -0.986734 0.162347 172.397 141.432)" rx="1.38389" height="7.02595" width="8.65248"/>
</g>
<ellipse fill="black" transform="matrix(0.0430125 -0.999075 -0.999075 -0.0430125 168.484 141.531)" ry="0.933268" rx="0.810674" cy="0.933268" cx="0.810674"/>
<ellipse fill="black" transform="matrix(0.0430125 -0.999075 -0.999075 -0.0430125 170.911 141.228)" ry="0.933268" rx="0.810674" cy="0.933268" cx="0.810674"/>
<ellipse fill="black" transform="matrix(0.0430125 -0.999075 -0.999075 -0.0430125 169.536 139.538)" ry="0.933268" rx="0.810674" cy="0.933268" cx="0.810674"/>
<ellipse fill="white" transform="rotate(92.4652 165.623 135.089)" ry="0.723518" rx="0.610877" cy="135.089" cx="165.623"/>
<g filter="url(#filter9_d_885_3798)">
<rect shape-rendering="crispEdges" fill="white" rx="11.2356" height="22.4712" width="36.771" y="19.9177" x="177.087"/>
<path stroke-linejoin="round" stroke-linecap="round" stroke-width="1.02142" stroke="#0088FF" d="M198.026 31.1533C198.026 31.4353 198.255 31.664 198.537 31.664C198.819 31.664 199.047 31.4353 199.047 31.1533C199.047 30.8712 198.819 30.6426 198.537 30.6426C198.255 30.6426 198.026 30.8712 198.026 31.1533Z"/>
<path stroke-linejoin="round" stroke-linecap="round" stroke-width="1.02142" stroke="#0088FF" d="M194.962 31.1533C194.962 31.4353 195.19 31.664 195.472 31.664C195.754 31.664 195.983 31.4353 195.983 31.1533C195.983 30.8712 195.754 30.6426 195.472 30.6426C195.19 30.6426 194.962 30.8712 194.962 31.1533Z"/>
<path stroke-linejoin="round" stroke-linecap="round" stroke-width="1.02142" stroke="#0088FF" d="M191.897 31.1533C191.897 31.4353 192.126 31.664 192.408 31.664C192.69 31.664 192.919 31.4353 192.919 31.1533C192.919 30.8712 192.69 30.6426 192.408 30.6426C192.126 30.6426 191.897 30.8712 191.897 31.1533Z"/>
</g>
<g filter="url(#filter10_d_885_3798)">
<circle fill="white" r="4.59638" cy="44.9423" cx="176.066"/>
</g>
<g filter="url(#filter11_d_885_3798)">
<circle fill="white" r="2.29819" cy="51.3263" cx="169.171"/>
</g>
<g filter="url(#filter12_d_885_3798)">
<rect fill="#FF7800" transform="matrix(0.973711 0.227788 -0.240353 0.970686 133.155 105.248)" rx="1.54407" height="21.4498" width="12.8227"/>
</g>
<g filter="url(#filter13_d_885_3798)">
<rect fill="#FF8D28" transform="matrix(0.973711 0.227788 -0.240353 0.970686 130.911 118.065)" rx="1.54407" height="7.56006" width="10.8226"/>
</g>
<ellipse fill="black" ry="0.995851" rx="1.02454" cy="123.229" cx="131.598"/>
<ellipse fill="black" ry="0.995851" rx="1.02454" cy="120.655" cx="132.112"/>
<ellipse fill="black" ry="0.995851" rx="1.02454" cy="122.199" cx="134.171"/>
<circle fill="white" transform="matrix(-1 0 0 1 139.322 124.806)" r="0.772035" cy="0.772035" cx="0.772035"/>
<defs>
<filter color-interpolation-filters="sRGB" filterUnits="userSpaceOnUse" height="83.485" width="90.4236" y="78.1385" x="3.95717" id="filter0_df_885_3798">
<feFlood result="BackgroundImageFix" flood-opacity="0"/>
<feColorMatrix result="hardAlpha" values="0 0 0 0 0 0 0 0 0 0 0 0 0 0 0 0 0 0 127 0" type="matrix" in="SourceAlpha"/>
<feOffset dy="2.04283"/>
<feGaussianBlur stdDeviation="1.02142"/>
<feComposite operator="out" in2="hardAlpha"/>
<feColorMatrix values="0 0 0 0 0 0 0 0 0 0 0 0 0 0 0 0 0 0 0.1 0" type="matrix"/>
<feBlend result="effect1_dropShadow_885_3798" in2="BackgroundImageFix" mode="normal"/>
<feBlend result="shape" in2="effect1_dropShadow_885_3798" in="SourceGraphic" mode="normal"/>
<feGaussianBlur result="effect2_foregroundBlur_885_3798" stdDeviation="0.510709"/>
</filter>
<filter color-interpolation-filters="sRGB" filterUnits="userSpaceOnUse" height="83.485" width="90.4236" y="90.9066" x="178.619" id="filter1_df_885_3798">
<feFlood result="BackgroundImageFix" flood-opacity="0"/>
<feColorMatrix result="hardAlpha" values="0 0 0 0 0 0 0 0 0 0 0 0 0 0 0 0 0 0 127 0" type="matrix" in="SourceAlpha"/>
<feOffset dy="2.04283"/>
<feGaussianBlur stdDeviation="1.02142"/>
<feComposite operator="out" in2="hardAlpha"/>
<feColorMatrix values="0 0 0 0 0 0 0 0 0 0 0 0 0 0 0 0 0 0 0.1 0" type="matrix"/>
<feBlend result="effect1_dropShadow_885_3798" in2="BackgroundImageFix" mode="normal"/>
<feBlend result="shape" in2="effect1_dropShadow_885_3798" in="SourceGraphic" mode="normal"/>
<feGaussianBlur result="effect2_foregroundBlur_885_3798" stdDeviation="0.510709"/>
</filter>
<filter color-interpolation-filters="sRGB" filterUnits="userSpaceOnUse" height="83.485" width="90.4236" y="35.7491" x="95.8849" id="filter2_df_885_3798">
<feFlood result="BackgroundImageFix" flood-opacity="0"/>
<feColorMatrix result="hardAlpha" values="0 0 0 0 0 0 0 0 0 0 0 0 0 0 0 0 0 0 127 0" type="matrix" in="SourceAlpha"/>
<feOffset dy="2.04283"/>
<feGaussianBlur stdDeviation="1.02142"/>
<feComposite operator="out" in2="hardAlpha"/>
<feColorMatrix values="0 0 0 0 0 0 0 0 0 0 0 0 0 0 0 0 0 0 0.1 0" type="matrix"/>
<feBlend result="effect1_dropShadow_885_3798" in2="BackgroundImageFix" mode="normal"/>
<feBlend result="shape" in2="effect1_dropShadow_885_3798" in="SourceGraphic" mode="normal"/>
<feGaussianBlur result="effect2_foregroundBlur_885_3798" stdDeviation="0.510709"/>
</filter>
<filter color-interpolation-filters="sRGB" filterUnits="userSpaceOnUse" height="91.625" width="122.339" y="100.099" x="71.3711" id="filter3_d_885_3798">
<feFlood result="BackgroundImageFix" flood-opacity="0"/>
<feColorMatrix result="hardAlpha" values="0 0 0 0 0 0 0 0 0 0 0 0 0 0 0 0 0 0 127 0" type="matrix" in="SourceAlpha"/>
<feOffset dy="8.37936"/>
<feComposite operator="out" in2="hardAlpha"/>
<feColorMatrix values="0 0 0 0 0.691819 0 0 0 0 0.691819 0 0 0 0 0.691819 0 0 0 1 0" type="matrix"/>
<feBlend result="effect1_dropShadow_885_3798" in2="BackgroundImageFix" mode="normal"/>
<feBlend result="shape" in2="effect1_dropShadow_885_3798" in="SourceGraphic" mode="normal"/>
</filter>
<filter color-interpolation-filters="sRGB" filterUnits="userSpaceOnUse" height="83.485" width="90.4236" y="146.574" x="83.1163" id="filter4_df_885_3798">
<feFlood result="BackgroundImageFix" flood-opacity="0"/>
<feColorMatrix result="hardAlpha" values="0 0 0 0 0 0 0 0 0 0 0 0 0 0 0 0 0 0 127 0" type="matrix" in="SourceAlpha"/>
<feOffset dy="2.04283"/>
<feGaussianBlur stdDeviation="1.02142"/>
<feComposite operator="out" in2="hardAlpha"/>
<feColorMatrix values="0 0 0 0 0 0 0 0 0 0 0 0 0 0 0 0 0 0 0.1 0" type="matrix"/>
<feBlend result="effect1_dropShadow_885_3798" in2="BackgroundImageFix" mode="normal"/>
<feBlend result="shape" in2="effect1_dropShadow_885_3798" in="SourceGraphic" mode="normal"/>
<feGaussianBlur result="effect2_foregroundBlur_885_3798" stdDeviation="0.510709"/>
</filter>
<filter color-interpolation-filters="sRGB" filterUnits="userSpaceOnUse" height="17.7256" width="22.0837" y="126.061" x="80.9166" id="filter5_d_885_3798">
<feFlood result="BackgroundImageFix" flood-opacity="0"/>
<feColorMatrix result="hardAlpha" values="0 0 0 0 0 0 0 0 0 0 0 0 0 0 0 0 0 0 127 0" type="matrix" in="SourceAlpha"/>
<feOffset dy="0.461295"/>
<feGaussianBlur stdDeviation="0.230648"/>
<feComposite operator="out" in2="hardAlpha"/>
<feColorMatrix values="0 0 0 0 0 0 0 0 0 0 0 0 0 0 0 0 0 0 0.25 0" type="matrix"/>
<feBlend result="effect1_dropShadow_885_3798" in2="BackgroundImageFix" mode="normal"/>
<feBlend result="shape" in2="effect1_dropShadow_885_3798" in="SourceGraphic" mode="normal"/>
</filter>
<filter color-interpolation-filters="sRGB" filterUnits="userSpaceOnUse" height="11.1296" width="10.0378" y="131.633" x="91.8395" id="filter6_d_885_3798">
<feFlood result="BackgroundImageFix" flood-opacity="0"/>
<feColorMatrix result="hardAlpha" values="0 0 0 0 0 0 0 0 0 0 0 0 0 0 0 0 0 0 127 0" type="matrix" in="SourceAlpha"/>
<feOffset dy="0.461295"/>
<feGaussianBlur stdDeviation="0.230648"/>
<feComposite operator="out" in2="hardAlpha"/>
<feColorMatrix values="0 0 0 0 0 0 0 0 0 0 0 0 0 0 0 0 0 0 0.25 0" type="matrix"/>
<feBlend result="effect1_dropShadow_885_3798" in2="BackgroundImageFix" mode="normal"/>
<feBlend result="shape" in2="effect1_dropShadow_885_3798" in="SourceGraphic" mode="normal"/>
</filter>
<filter color-interpolation-filters="sRGB" filterUnits="userSpaceOnUse" height="13.7351" width="22.3493" y="130.394" x="162.31" id="filter7_d_885_3798">
<feFlood result="BackgroundImageFix" flood-opacity="0"/>
<feColorMatrix result="hardAlpha" values="0 0 0 0 0 0 0 0 0 0 0 0 0 0 0 0 0 0 127 0" type="matrix" in="SourceAlpha"/>
<feOffset dy="0.461295"/>
<feGaussianBlur stdDeviation="0.230648"/>
<feComposite operator="out" in2="hardAlpha"/>
<feColorMatrix values="0 0 0 0 0 0 0 0 0 0 0 0 0 0 0 0 0 0 0.25 0" type="matrix"/>
<feBlend result="effect1_dropShadow_885_3798" in2="BackgroundImageFix" mode="normal"/>
<feBlend result="shape" in2="effect1_dropShadow_885_3798" in="SourceGraphic" mode="normal"/>
</filter>
<filter color-interpolation-filters="sRGB" filterUnits="userSpaceOnUse" height="10.0815" width="9.25169" y="133.208" x="163.331" id="filter8_d_885_3798">
<feFlood result="BackgroundImageFix" flood-opacity="0"/>
<feColorMatrix result="hardAlpha" values="0 0 0 0 0 0 0 0 0 0 0 0 0 0 0 0 0 0 127 0" type="matrix" in="SourceAlpha"/>
<feOffset dy="0.461295"/>
<feGaussianBlur stdDeviation="0.230648"/>
<feComposite operator="out" in2="hardAlpha"/>
<feColorMatrix values="0 0 0 0 0 0 0 0 0 0 0 0 0 0 0 0 0 0 0.25 0" type="matrix"/>
<feBlend result="effect1_dropShadow_885_3798" in2="BackgroundImageFix" mode="normal"/>
<feBlend result="shape" in2="effect1_dropShadow_885_3798" in="SourceGraphic" mode="normal"/>
</filter>
<filter color-interpolation-filters="sRGB" filterUnits="userSpaceOnUse" height="63.3279" width="77.6282" y="9.03606e-05" x="156.659" id="filter9_d_885_3798">
<feFlood result="BackgroundImageFix" flood-opacity="0"/>
<feColorMatrix result="hardAlpha" values="0 0 0 0 0 0 0 0 0 0 0 0 0 0 0 0 0 0 127 0" type="matrix" in="SourceAlpha"/>
<feOffset dy="0.510709"/>
<feGaussianBlur stdDeviation="10.2142"/>
<feComposite operator="out" in2="hardAlpha"/>
<feColorMatrix values="0 0 0 0 0 0 0 0 0 0 0 0 0 0 0 0 0 0 0.1 0" type="matrix"/>
<feBlend result="effect1_dropShadow_885_3798" in2="BackgroundImageFix" mode="normal"/>
<feBlend result="shape" in2="effect1_dropShadow_885_3798" in="SourceGraphic" mode="normal"/>
</filter>
<filter color-interpolation-filters="sRGB" filterUnits="userSpaceOnUse" height="50.0496" width="50.0491" y="20.4283" x="151.041" id="filter10_d_885_3798">
<feFlood result="BackgroundImageFix" flood-opacity="0"/>
<feColorMatrix result="hardAlpha" values="0 0 0 0 0 0 0 0 0 0 0 0 0 0 0 0 0 0 127 0" type="matrix" in="SourceAlpha"/>
<feOffset dy="0.510709"/>
<feGaussianBlur stdDeviation="10.2142"/>
<feComposite operator="out" in2="hardAlpha"/>
<feColorMatrix values="0 0 0 0 0 0 0 0 0 0 0 0 0 0 0 0 0 0 0.1 0" type="matrix"/>
<feBlend result="effect1_dropShadow_885_3798" in2="BackgroundImageFix" mode="normal"/>
<feBlend result="shape" in2="effect1_dropShadow_885_3798" in="SourceGraphic" mode="normal"/>
</filter>
<filter color-interpolation-filters="sRGB" filterUnits="userSpaceOnUse" height="45.4531" width="45.4534" y="29.1104" x="146.445" id="filter11_d_885_3798">
<feFlood result="BackgroundImageFix" flood-opacity="0"/>
<feColorMatrix result="hardAlpha" values="0 0 0 0 0 0 0 0 0 0 0 0 0 0 0 0 0 0 127 0" type="matrix" in="SourceAlpha"/>
<feOffset dy="0.510709"/>
<feGaussianBlur stdDeviation="10.2142"/>
<feComposite operator="out" in2="hardAlpha"/>
<feColorMatrix values="0 0 0 0 0 0 0 0 0 0 0 0 0 0 0 0 0 0 0.1 0" type="matrix"/>
<feBlend result="effect1_dropShadow_885_3798" in2="BackgroundImageFix" mode="normal"/>
<feBlend result="shape" in2="effect1_dropShadow_885_3798" in="SourceGraphic" mode="normal"/>
</filter>
<filter color-interpolation-filters="sRGB" filterUnits="userSpaceOnUse" height="24.15" width="18.0196" y="105.559" x="127.811" id="filter12_d_885_3798">
<feFlood result="BackgroundImageFix" flood-opacity="0"/>
<feColorMatrix result="hardAlpha" values="0 0 0 0 0 0 0 0 0 0 0 0 0 0 0 0 0 0 127 0" type="matrix" in="SourceAlpha"/>
<feOffset dy="0.51469"/>
<feGaussianBlur stdDeviation="0.257345"/>
<feComposite operator="out" in2="hardAlpha"/>
<feColorMatrix values="0 0 0 0 0 0 0 0 0 0 0 0 0 0 0 0 0 0 0.25 0" type="matrix"/>
<feBlend result="effect1_dropShadow_885_3798" in2="BackgroundImageFix" mode="normal"/>
<feBlend result="shape" in2="effect1_dropShadow_885_3798" in="SourceGraphic" mode="normal"/>
</filter>
<filter color-interpolation-filters="sRGB" filterUnits="userSpaceOnUse" height="10.2118" width="12.7335" y="118.375" x="128.905" id="filter13_d_885_3798">
<feFlood result="BackgroundImageFix" flood-opacity="0"/>
<feColorMatrix result="hardAlpha" values="0 0 0 0 0 0 0 0 0 0 0 0 0 0 0 0 0 0 127 0" type="matrix" in="SourceAlpha"/>
<feOffset dy="0.51469"/>
<feGaussianBlur stdDeviation="0.257345"/>
<feComposite operator="out" in2="hardAlpha"/>
<feColorMatrix values="0 0 0 0 0 0 0 0 0 0 0 0 0 0 0 0 0 0 0.25 0" type="matrix"/>
<feBlend result="effect1_dropShadow_885_3798" in2="BackgroundImageFix" mode="normal"/>
<feBlend result="shape" in2="effect1_dropShadow_885_3798" in="SourceGraphic" mode="normal"/>
</filter>
<linearGradient gradientUnits="userSpaceOnUse" y2="157.538" x2="49.1688" y1="79.1599" x1="49.1688" id="paint0_linear_885_3798">
<stop stop-color="#FAF7B8"/>
<stop stop-color="#83DFEF" offset="1"/>
</linearGradient>
<linearGradient gradientUnits="userSpaceOnUse" y2="123.081" x2="38.9407" y1="124.358" x1="6" id="paint1_linear_885_3798">
<stop/>
<stop stop-color="white" offset="0.870192"/>
</linearGradient>
<linearGradient gradientUnits="userSpaceOnUse" y2="170.306" x2="223.831" y1="91.928" x1="223.831" id="paint2_linear_885_3798">
<stop stop-color="#FAF7B8"/>
<stop stop-color="#83DFEF" offset="1"/>
</linearGradient>
<linearGradient gradientUnits="userSpaceOnUse" y2="135.849" x2="234.059" y1="137.126" x1="267" id="paint3_linear_885_3798">
<stop/>
<stop stop-color="white" offset="0.870192"/>
</linearGradient>
<linearGradient gradientUnits="userSpaceOnUse" y2="115.148" x2="141.097" y1="36.7705" x1="141.097" id="paint4_linear_885_3798">
<stop stop-color="#FAF7B8"/>
<stop stop-color="#83DFEF" offset="1"/>
</linearGradient>
<linearGradient gradientUnits="userSpaceOnUse" y2="225.973" x2="128.328" y1="147.595" x1="128.328" id="paint5_linear_885_3798">
<stop stop-color="#FAF7B8"/>
<stop stop-color="#83DFEF" offset="1"/>
</linearGradient>
<linearGradient gradientUnits="userSpaceOnUse" y2="193.303" x2="110.439" y1="192.793" x1="171.497" id="paint6_linear_885_3798">
<stop/>
<stop stop-color="white" offset="1"/>
</linearGradient>
</defs>
</svg>