<svg width="280" height="473" viewBox="0 0 280 473" fill="none" xmlns="http://www.w3.org/2000/svg">
<g filter="url(#filter0_df_287_2006)">
<path d="M11.7173 306.497C10.2725 284.825 18.0745 224.432 60.8411 156.236C77.3052 128.954 115.187 77.8438 160.533 42.9278C175.29 31.2569 190.465 21.7346 205.322 16.0889C227.476 9.82802 283.053 -0.0930605 328.132 10.3096C345.469 12.7177 390.837 30.5371 433.603 82.5505C455.757 114.336 500.065 202.181 500.065 299.273C499.102 334.912 477.815 411.391 400.373 432.196C344.988 445.681 209.079 463.982 108.519 429.307C77.215 417.267 14.0285 375.848 11.7173 306.497Z" fill="url(#paint0_linear_287_2006)" fill-opacity="0.5" shape-rendering="crispEdges"/>
</g>
<ellipse opacity="0.5" cx="157.486" cy="255.963" rx="41.8997" ry="21.9021" fill="#FF7889"/>
<ellipse cx="208.055" cy="206.609" rx="20.2274" ry="21.6723" fill="black"/>
<path d="M251.398 234.061C267.291 268.736 296.188 248.509 300.522 234.061" stroke="black" stroke-width="8.66891" stroke-linecap="round"/>
<circle cx="218.167" cy="203.719" r="4.33445" fill="#D9D9D9"/>
<defs>
<filter id="filter0_df_287_2006" x="5.34058e-05" y="2.67029e-05" width="511.623" height="472.365" filterUnits="userSpaceOnUse" color-interpolation-filters="sRGB">
<feFlood flood-opacity="0" result="BackgroundImageFix"/>
<feColorMatrix in="SourceAlpha" type="matrix" values="0 0 0 0 0 0 0 0 0 0 0 0 0 0 0 0 0 0 127 0" result="hardAlpha"/>
<feOffset dy="11.5585"/>
<feGaussianBlur stdDeviation="5.77927"/>
<feComposite in2="hardAlpha" operator="out"/>
<feColorMatrix type="matrix" values="0 0 0 0 0 0 0 0 0 0 0 0 0 0 0 0 0 0 0.1 0"/>
<feBlend mode="normal" in2="BackgroundImageFix" result="effect1_dropShadow_287_2006"/>
<feBlend mode="normal" in="SourceGraphic" in2="effect1_dropShadow_287_2006" result="shape"/>
<feGaussianBlur stdDeviation="2.88964" result="effect2_foregroundBlur_287_2006"/>
</filter>
<linearGradient id="paint0_linear_287_2006" x1="255.812" y1="5.7793" x2="255.812" y2="449.248" gradientUnits="userSpaceOnUse">
<stop stop-color="#FAF7B8"/>
<stop offset="1" stop-color="#83DFEF"/>
</linearGradient>
</defs>
</svg>
