<svg width="266" height="231" viewBox="0 0 266 231" fill="none" xmlns="http://www.w3.org/2000/svg">
<g filter="url(#filter0_df_339_2138)">
<path d="M2.07102 132.308C1.81566 128.478 3.19458 117.804 10.7531 105.751C13.6629 100.929 20.3581 91.8962 28.3724 85.7252C30.9805 83.6625 33.6626 81.9796 36.2884 80.9818C40.2038 79.8752 50.0264 78.1218 57.9935 79.9603C61.0577 80.3859 69.0759 83.5353 76.6343 92.7281C80.5498 98.3459 88.3806 113.871 88.3806 131.031C88.2104 137.33 84.4482 150.847 70.7612 154.524C60.9726 156.907 36.9523 160.142 19.1796 154.013C13.647 151.885 2.47949 144.565 2.07102 132.308Z" fill="url(#paint0_linear_339_2138)"/>
<path d="M2.07102 132.308C1.81566 128.478 3.19458 117.804 10.7531 105.751C13.6629 100.929 20.3581 91.8962 28.3724 85.7252C30.9805 83.6625 33.6626 81.9796 36.2884 80.9818C40.2038 79.8752 50.0264 78.1218 57.9935 79.9603C61.0577 80.3859 69.0759 83.5353 76.6343 92.7281C80.5498 98.3459 88.3806 113.871 88.3806 131.031C88.2104 137.33 84.4482 150.847 70.7612 154.524C60.9726 156.907 36.9523 160.142 19.1796 154.013C13.647 151.885 2.47949 144.565 2.07102 132.308Z" fill="url(#paint1_linear_339_2138)" fill-opacity="0.2"/>
</g>
<ellipse opacity="0.5" cx="75.8408" cy="117.759" rx="7.40527" ry="3.87094" fill="#FF7889"/>
<ellipse opacity="0.5" cx="33.9619" cy="117.759" rx="7.40527" ry="3.87094" fill="#FF7889"/>
<circle cx="66.3924" cy="88.8631" r="2.04283" fill="white"/>
<circle cx="69.457" cy="91.9272" r="1.02142" fill="white"/>
<circle cx="63.3281" cy="86.3095" r="0.510709" fill="white"/>
<path d="M50.5605 113.888C53.3694 120.016 58.4765 116.441 59.2426 113.888" stroke="black" stroke-width="1.53213" stroke-linecap="round"/>
<ellipse cx="65.8816" cy="109.036" rx="3.57496" ry="3.83031" fill="black"/>
<ellipse cx="42.8992" cy="109.036" rx="3.57496" ry="3.83031" fill="black"/>
<circle cx="66.6479" cy="107.504" r="0.766063" fill="#D9D9D9"/>
<circle cx="43.6655" cy="107.504" r="0.766063" fill="#D9D9D9"/>
<g filter="url(#filter1_df_339_2138)">
<path d="M263.015 145.076C263.27 141.245 261.891 130.571 254.333 118.519C251.423 113.697 244.728 104.664 236.714 98.4928C234.105 96.4301 231.423 94.7472 228.798 93.7493C224.882 92.6428 215.06 90.8894 207.092 92.7279C204.028 93.1535 196.01 96.3029 188.452 105.496C184.536 111.113 176.705 126.639 176.705 143.799C176.876 150.098 180.638 163.614 194.325 167.291C204.113 169.675 228.134 172.909 245.906 166.781C251.439 164.653 262.606 157.333 263.015 145.076Z" fill="url(#paint2_linear_339_2138)"/>
<path d="M263.015 145.076C263.27 141.245 261.891 130.571 254.333 118.519C251.423 113.697 244.728 104.664 236.714 98.4928C234.105 96.4301 231.423 94.7472 228.798 93.7493C224.882 92.6428 215.06 90.8894 207.092 92.7279C204.028 93.1535 196.01 96.3029 188.452 105.496C184.536 111.113 176.705 126.639 176.705 143.799C176.876 150.098 180.638 163.614 194.325 167.291C204.113 169.675 228.134 172.909 245.906 166.781C251.439 164.653 262.606 157.333 263.015 145.076Z" fill="url(#paint3_linear_339_2138)" fill-opacity="0.2"/>
</g>
<ellipse opacity="0.5" cx="7.40527" cy="3.87094" rx="7.40527" ry="3.87094" transform="matrix(-1 0 0 1 196.65 126.656)" fill="#FF7889"/>
<ellipse opacity="0.5" cx="7.40527" cy="3.87094" rx="7.40527" ry="3.87094" transform="matrix(-1 0 0 1 238.529 126.656)" fill="#FF7889"/>
<circle cx="2.04283" cy="2.04283" r="2.04283" transform="matrix(-1 0 0 1 200.736 99.5879)" fill="white"/>
<circle cx="1.02142" cy="1.02142" r="1.02142" transform="matrix(-1 0 0 1 196.65 103.674)" fill="white"/>
<circle cx="0.510709" cy="0.510709" r="0.510709" transform="matrix(-1 0 0 1 202.269 98.5664)" fill="white"/>
<ellipse cx="210.653" cy="128.005" rx="1.77352" ry="2.88196" fill="black"/>
<ellipse cx="211.097" cy="128.005" rx="1.33014" ry="2.30557" fill="#BA1A1A"/>
<ellipse cx="3.57496" cy="3.83031" rx="3.57496" ry="3.83031" transform="matrix(-1 0 0 1 202.779 117.974)" fill="black"/>
<ellipse cx="3.57496" cy="3.83031" rx="3.57496" ry="3.83031" transform="matrix(-1 0 0 1 225.762 117.974)" fill="black"/>
<circle cx="0.766063" cy="0.766063" r="0.766063" transform="matrix(-1 0 0 1 199.204 119.506)" fill="#D9D9D9"/>
<circle cx="0.766063" cy="0.766063" r="0.766063" transform="matrix(-1 0 0 1 222.187 119.506)" fill="#D9D9D9"/>
<g filter="url(#filter2_df_339_2138)">
<path d="M93.9988 89.9193C93.7434 86.089 95.1223 75.4152 102.681 63.3625C105.591 58.5407 112.286 49.5075 120.3 43.3366C122.908 41.2739 125.59 39.5909 128.216 38.5931C132.132 37.4866 141.954 35.7331 149.921 37.5717C152.985 37.9973 161.004 41.1466 168.562 50.3394C172.478 55.9572 180.308 71.4827 180.308 88.6425C180.138 94.9413 176.376 108.458 162.689 112.135C152.9 114.518 128.88 117.753 111.107 111.624C105.575 109.496 94.4072 102.176 93.9988 89.9193Z" fill="url(#paint4_linear_339_2138)"/>
</g>
<ellipse opacity="0.5" cx="161.64" cy="80.9876" rx="7.40527" ry="3.87094" fill="#FF7889"/>
<ellipse opacity="0.5" cx="119.762" cy="80.9876" rx="7.40527" ry="3.87094" fill="#FF7889"/>
<circle cx="157.809" cy="53.6244" r="2.04283" fill="white"/>
<circle cx="160.874" cy="56.6884" r="1.02142" fill="white"/>
<circle cx="154.745" cy="51.0708" r="0.510709" fill="white"/>
<ellipse cx="151.681" cy="72.2649" rx="3.57496" ry="3.83031" fill="black"/>
<ellipse cx="139.424" cy="81.7134" rx="4.08567" ry="7.14992" fill="black"/>
<ellipse cx="140.444" cy="81.7136" rx="3.06425" ry="5.71994" fill="#BA1A1A"/>
<ellipse cx="139.424" cy="81.7134" rx="4.08567" ry="7.14992" fill="black"/>
<ellipse cx="140.444" cy="81.7136" rx="3.06425" ry="5.71994" fill="#BA1A1A"/>
<ellipse cx="128.699" cy="72.2649" rx="3.57496" ry="3.83031" fill="black"/>
<rect x="88.6133" y="49.4136" width="12.091" height="2.81185" rx="1.40593" transform="rotate(43.504 88.6133 49.4136)" fill="#FAF7B8"/>
<rect x="83.126" y="57.2173" width="12.091" height="2.81185" rx="1.40593" transform="rotate(22.1176 83.126 57.2173)" fill="#FAF7B8"/>
<rect x="81.5146" y="65.939" width="12.091" height="2.81185" rx="1.40593" transform="rotate(4.57115 81.5146 65.939)" fill="#FAF7B8"/>
<g filter="url(#filter3_d_339_2138)">
<ellipse cx="128.583" cy="141.721" rx="61.1693" ry="41.6227" fill="#E5E5EA"/>
</g>
<g filter="url(#filter4_df_339_2138)">
<path d="M167.512 200.743C167.767 196.913 166.388 186.239 158.83 174.186C155.92 169.364 149.225 160.331 141.211 154.16C138.602 152.098 135.92 150.415 133.295 149.417C129.379 148.31 119.557 146.557 111.59 148.395C108.525 148.821 100.507 151.97 92.9487 161.163C89.0332 166.781 81.2024 182.306 81.2024 199.466C81.3726 205.765 85.1348 219.282 98.8218 222.959C108.61 225.342 132.631 228.577 150.403 222.448C155.936 220.32 167.104 213 167.512 200.743Z" fill="url(#paint5_linear_339_2138)"/>
<path d="M167.512 200.743C167.767 196.913 166.388 186.239 158.83 174.186C155.92 169.364 149.225 160.331 141.211 154.16C138.602 152.098 135.92 150.415 133.295 149.417C129.379 148.31 119.557 146.557 111.59 148.395C108.525 148.821 100.507 151.97 92.9487 161.163C89.0332 166.781 81.2024 182.306 81.2024 199.466C81.3726 205.765 85.1348 219.282 98.8218 222.959C108.61 225.342 132.631 228.577 150.403 222.448C155.936 220.32 167.104 213 167.512 200.743Z" fill="url(#paint6_linear_339_2138)" fill-opacity="0.2"/>
</g>
<circle cx="2.04283" cy="2.04283" r="2.04283" transform="matrix(-1 0 0 1 105.234 155.255)" fill="white"/>
<circle cx="1.02142" cy="1.02142" r="1.02142" transform="matrix(-1 0 0 1 101.148 159.341)" fill="white"/>
<circle cx="0.510709" cy="0.510709" r="0.510709" transform="matrix(-1 0 0 1 106.767 154.234)" fill="white"/>
<g filter="url(#filter5_d_339_2138)">
<rect width="10.8857" height="19.1642" rx="1.38389" transform="matrix(0.419323 -0.907837 0.913288 0.407315 76.9678 135.5)" fill="#FF7800"/>
</g>
<g filter="url(#filter6_d_339_2138)">
<rect width="9.18777" height="6.75451" rx="1.38389" transform="matrix(0.419323 -0.907837 0.913288 0.407315 87.8906 139.532)" fill="#FF8D28"/>
</g>
<ellipse cx="92.545" cy="139.835" rx="0.867045" ry="0.892539" transform="rotate(-79.1233 92.545 139.835)" fill="black"/>
<ellipse cx="90.3624" cy="138.972" rx="0.867045" ry="0.892539" transform="rotate(-79.1233 90.3624 138.972)" fill="black"/>
<ellipse cx="92.0499" cy="137.522" rx="0.867045" ry="0.892539" transform="rotate(-79.1233 92.0499 137.522)" fill="black"/>
<ellipse cx="0.653355" cy="0.691943" rx="0.653355" ry="0.691943" transform="matrix(-0.188697 0.982036 0.982036 0.188697 95.167 133.682)" fill="white"/>
<g filter="url(#filter7_d_339_2138)">
<rect width="10.2515" height="19.9344" rx="1.38389" transform="matrix(-0.225316 -0.974286 -0.986734 0.162347 180.519 140.175)" fill="#FF7800"/>
</g>
<g filter="url(#filter8_d_339_2138)">
<rect width="8.65248" height="7.02595" rx="1.38389" transform="matrix(-0.225316 -0.974286 -0.986734 0.162347 168.441 141.432)" fill="#FF8D28"/>
</g>
<ellipse cx="0.810674" cy="0.933268" rx="0.810674" ry="0.933268" transform="matrix(0.0430125 -0.999075 -0.999075 -0.0430125 164.527 141.531)" fill="black"/>
<ellipse cx="0.810674" cy="0.933268" rx="0.810674" ry="0.933268" transform="matrix(0.0430125 -0.999075 -0.999075 -0.0430125 166.955 141.228)" fill="black"/>
<ellipse cx="0.810674" cy="0.933268" rx="0.810674" ry="0.933268" transform="matrix(0.0430125 -0.999075 -0.999075 -0.0430125 165.579 139.538)" fill="black"/>
<ellipse cx="161.667" cy="135.089" rx="0.610877" ry="0.723518" transform="rotate(92.4652 161.667 135.089)" fill="white"/>
<g filter="url(#filter9_d_339_2138)">
<rect x="173.13" y="19.9175" width="36.771" height="22.4712" rx="11.2356" fill="white" shape-rendering="crispEdges"/>
<path d="M194.069 31.1528C194.069 31.4349 194.298 31.6635 194.58 31.6635C194.862 31.6635 195.09 31.4349 195.09 31.1528C195.09 30.8707 194.862 30.6421 194.58 30.6421C194.298 30.6421 194.069 30.8707 194.069 31.1528Z" stroke="#0088FF" stroke-width="1.02142" stroke-linecap="round" stroke-linejoin="round"/>
<path d="M191.005 31.1528C191.005 31.4349 191.233 31.6635 191.515 31.6635C191.797 31.6635 192.026 31.4349 192.026 31.1528C192.026 30.8707 191.797 30.6421 191.515 30.6421C191.233 30.6421 191.005 30.8707 191.005 31.1528Z" stroke="#0088FF" stroke-width="1.02142" stroke-linecap="round" stroke-linejoin="round"/>
<path d="M187.94 31.1528C187.94 31.4349 188.169 31.6635 188.451 31.6635C188.733 31.6635 188.962 31.4349 188.962 31.1528C188.962 30.8707 188.733 30.6421 188.451 30.6421C188.169 30.6421 187.94 30.8707 187.94 31.1528Z" stroke="#0088FF" stroke-width="1.02142" stroke-linecap="round" stroke-linejoin="round"/>
</g>
<g filter="url(#filter10_d_339_2138)">
<circle cx="172.109" cy="44.9421" r="4.59638" fill="white"/>
</g>
<g filter="url(#filter11_d_339_2138)">
<circle cx="165.214" cy="51.326" r="2.29819" fill="white"/>
</g>
<g filter="url(#filter12_d_339_2138)">
<rect width="12.8227" height="21.4498" rx="1.54407" transform="matrix(0.973711 0.227788 -0.240353 0.970686 129.198 105.248)" fill="#FF7800"/>
</g>
<g filter="url(#filter13_d_339_2138)">
<rect width="10.8226" height="7.56006" rx="1.54407" transform="matrix(0.973711 0.227788 -0.240353 0.970686 126.954 118.064)" fill="#FF8D28"/>
</g>
<ellipse cx="127.641" cy="123.228" rx="1.02454" ry="0.995851" fill="black"/>
<ellipse cx="128.156" cy="120.655" rx="1.02454" ry="0.995851" fill="black"/>
<ellipse cx="130.214" cy="122.199" rx="1.02454" ry="0.995851" fill="black"/>
<circle cx="0.772035" cy="0.772035" r="0.772035" transform="matrix(-1 0 0 1 135.366 124.806)" fill="white"/>
<path d="M130.792 74.415L165.072 78.6192L135.32 125.835L134.043 125.917L130.792 74.415Z" fill="url(#paint7_linear_339_2138)"/>
<defs>
<filter id="filter0_df_339_2138" x="0.000134468" y="78.1383" width="90.4236" height="83.485" filterUnits="userSpaceOnUse" color-interpolation-filters="sRGB">
<feFlood flood-opacity="0" result="BackgroundImageFix"/>
<feColorMatrix in="SourceAlpha" type="matrix" values="0 0 0 0 0 0 0 0 0 0 0 0 0 0 0 0 0 0 127 0" result="hardAlpha"/>
<feOffset dy="2.04283"/>
<feGaussianBlur stdDeviation="1.02142"/>
<feComposite in2="hardAlpha" operator="out"/>
<feColorMatrix type="matrix" values="0 0 0 0 0 0 0 0 0 0 0 0 0 0 0 0 0 0 0.1 0"/>
<feBlend mode="normal" in2="BackgroundImageFix" result="effect1_dropShadow_339_2138"/>
<feBlend mode="normal" in="SourceGraphic" in2="effect1_dropShadow_339_2138" result="shape"/>
<feGaussianBlur stdDeviation="0.510709" result="effect2_foregroundBlur_339_2138"/>
</filter>
<filter id="filter1_df_339_2138" x="174.662" y="90.9058" width="90.4236" height="83.485" filterUnits="userSpaceOnUse" color-interpolation-filters="sRGB">
<feFlood flood-opacity="0" result="BackgroundImageFix"/>
<feColorMatrix in="SourceAlpha" type="matrix" values="0 0 0 0 0 0 0 0 0 0 0 0 0 0 0 0 0 0 127 0" result="hardAlpha"/>
<feOffset dy="2.04283"/>
<feGaussianBlur stdDeviation="1.02142"/>
<feComposite in2="hardAlpha" operator="out"/>
<feColorMatrix type="matrix" values="0 0 0 0 0 0 0 0 0 0 0 0 0 0 0 0 0 0 0.1 0"/>
<feBlend mode="normal" in2="BackgroundImageFix" result="effect1_dropShadow_339_2138"/>
<feBlend mode="normal" in="SourceGraphic" in2="effect1_dropShadow_339_2138" result="shape"/>
<feGaussianBlur stdDeviation="0.510709" result="effect2_foregroundBlur_339_2138"/>
</filter>
<filter id="filter2_df_339_2138" x="91.9279" y="35.7496" width="90.4236" height="83.485" filterUnits="userSpaceOnUse" color-interpolation-filters="sRGB">
<feFlood flood-opacity="0" result="BackgroundImageFix"/>
<feColorMatrix in="SourceAlpha" type="matrix" values="0 0 0 0 0 0 0 0 0 0 0 0 0 0 0 0 0 0 127 0" result="hardAlpha"/>
<feOffset dy="2.04283"/>
<feGaussianBlur stdDeviation="1.02142"/>
<feComposite in2="hardAlpha" operator="out"/>
<feColorMatrix type="matrix" values="0 0 0 0 0 0 0 0 0 0 0 0 0 0 0 0 0 0 0.1 0"/>
<feBlend mode="normal" in2="BackgroundImageFix" result="effect1_dropShadow_339_2138"/>
<feBlend mode="normal" in="SourceGraphic" in2="effect1_dropShadow_339_2138" result="shape"/>
<feGaussianBlur stdDeviation="0.510709" result="effect2_foregroundBlur_339_2138"/>
</filter>
<filter id="filter3_d_339_2138" x="67.4141" y="100.099" width="122.339" height="91.625" filterUnits="userSpaceOnUse" color-interpolation-filters="sRGB">
<feFlood flood-opacity="0" result="BackgroundImageFix"/>
<feColorMatrix in="SourceAlpha" type="matrix" values="0 0 0 0 0 0 0 0 0 0 0 0 0 0 0 0 0 0 127 0" result="hardAlpha"/>
<feOffset dy="8.37936"/>
<feComposite in2="hardAlpha" operator="out"/>
<feColorMatrix type="matrix" values="0 0 0 0 0.691819 0 0 0 0 0.691819 0 0 0 0 0.691819 0 0 0 1 0"/>
<feBlend mode="normal" in2="BackgroundImageFix" result="effect1_dropShadow_339_2138"/>
<feBlend mode="normal" in="SourceGraphic" in2="effect1_dropShadow_339_2138" result="shape"/>
</filter>
<filter id="filter4_df_339_2138" x="79.1593" y="146.573" width="90.4236" height="83.485" filterUnits="userSpaceOnUse" color-interpolation-filters="sRGB">
<feFlood flood-opacity="0" result="BackgroundImageFix"/>
<feColorMatrix in="SourceAlpha" type="matrix" values="0 0 0 0 0 0 0 0 0 0 0 0 0 0 0 0 0 0 127 0" result="hardAlpha"/>
<feOffset dy="2.04283"/>
<feGaussianBlur stdDeviation="1.02142"/>
<feComposite in2="hardAlpha" operator="out"/>
<feColorMatrix type="matrix" values="0 0 0 0 0 0 0 0 0 0 0 0 0 0 0 0 0 0 0.1 0"/>
<feBlend mode="normal" in2="BackgroundImageFix" result="effect1_dropShadow_339_2138"/>
<feBlend mode="normal" in="SourceGraphic" in2="effect1_dropShadow_339_2138" result="shape"/>
<feGaussianBlur stdDeviation="0.510709" result="effect2_foregroundBlur_339_2138"/>
</filter>
<filter id="filter5_d_339_2138" x="76.9596" y="126.06" width="22.0837" height="17.7258" filterUnits="userSpaceOnUse" color-interpolation-filters="sRGB">
<feFlood flood-opacity="0" result="BackgroundImageFix"/>
<feColorMatrix in="SourceAlpha" type="matrix" values="0 0 0 0 0 0 0 0 0 0 0 0 0 0 0 0 0 0 127 0" result="hardAlpha"/>
<feOffset dy="0.461295"/>
<feGaussianBlur stdDeviation="0.230648"/>
<feComposite in2="hardAlpha" operator="out"/>
<feColorMatrix type="matrix" values="0 0 0 0 0 0 0 0 0 0 0 0 0 0 0 0 0 0 0.25 0"/>
<feBlend mode="normal" in2="BackgroundImageFix" result="effect1_dropShadow_339_2138"/>
<feBlend mode="normal" in="SourceGraphic" in2="effect1_dropShadow_339_2138" result="shape"/>
</filter>
<filter id="filter6_d_339_2138" x="87.8825" y="131.633" width="10.0378" height="11.1296" filterUnits="userSpaceOnUse" color-interpolation-filters="sRGB">
<feFlood flood-opacity="0" result="BackgroundImageFix"/>
<feColorMatrix in="SourceAlpha" type="matrix" values="0 0 0 0 0 0 0 0 0 0 0 0 0 0 0 0 0 0 127 0" result="hardAlpha"/>
<feOffset dy="0.461295"/>
<feGaussianBlur stdDeviation="0.230648"/>
<feComposite in2="hardAlpha" operator="out"/>
<feColorMatrix type="matrix" values="0 0 0 0 0 0 0 0 0 0 0 0 0 0 0 0 0 0 0.25 0"/>
<feBlend mode="normal" in2="BackgroundImageFix" result="effect1_dropShadow_339_2138"/>
<feBlend mode="normal" in="SourceGraphic" in2="effect1_dropShadow_339_2138" result="shape"/>
</filter>
<filter id="filter7_d_339_2138" x="158.354" y="130.393" width="22.3493" height="13.7351" filterUnits="userSpaceOnUse" color-interpolation-filters="sRGB">
<feFlood flood-opacity="0" result="BackgroundImageFix"/>
<feColorMatrix in="SourceAlpha" type="matrix" values="0 0 0 0 0 0 0 0 0 0 0 0 0 0 0 0 0 0 127 0" result="hardAlpha"/>
<feOffset dy="0.461295"/>
<feGaussianBlur stdDeviation="0.230648"/>
<feComposite in2="hardAlpha" operator="out"/>
<feColorMatrix type="matrix" values="0 0 0 0 0 0 0 0 0 0 0 0 0 0 0 0 0 0 0.25 0"/>
<feBlend mode="normal" in2="BackgroundImageFix" result="effect1_dropShadow_339_2138"/>
<feBlend mode="normal" in="SourceGraphic" in2="effect1_dropShadow_339_2138" result="shape"/>
</filter>
<filter id="filter8_d_339_2138" x="159.375" y="133.208" width="9.25169" height="10.0813" filterUnits="userSpaceOnUse" color-interpolation-filters="sRGB">
<feFlood flood-opacity="0" result="BackgroundImageFix"/>
<feColorMatrix in="SourceAlpha" type="matrix" values="0 0 0 0 0 0 0 0 0 0 0 0 0 0 0 0 0 0 127 0" result="hardAlpha"/>
<feOffset dy="0.461295"/>
<feGaussianBlur stdDeviation="0.230648"/>
<feComposite in2="hardAlpha" operator="out"/>
<feColorMatrix type="matrix" values="0 0 0 0 0 0 0 0 0 0 0 0 0 0 0 0 0 0 0.25 0"/>
<feBlend mode="normal" in2="BackgroundImageFix" result="effect1_dropShadow_339_2138"/>
<feBlend mode="normal" in="SourceGraphic" in2="effect1_dropShadow_339_2138" result="shape"/>
</filter>
<filter id="filter9_d_339_2138" x="152.702" y="-0.00015378" width="77.6282" height="63.3279" filterUnits="userSpaceOnUse" color-interpolation-filters="sRGB">
<feFlood flood-opacity="0" result="BackgroundImageFix"/>
<feColorMatrix in="SourceAlpha" type="matrix" values="0 0 0 0 0 0 0 0 0 0 0 0 0 0 0 0 0 0 127 0" result="hardAlpha"/>
<feOffset dy="0.510709"/>
<feGaussianBlur stdDeviation="10.2142"/>
<feComposite in2="hardAlpha" operator="out"/>
<feColorMatrix type="matrix" values="0 0 0 0 0 0 0 0 0 0 0 0 0 0 0 0 0 0 0.1 0"/>
<feBlend mode="normal" in2="BackgroundImageFix" result="effect1_dropShadow_339_2138"/>
<feBlend mode="normal" in="SourceGraphic" in2="effect1_dropShadow_339_2138" result="shape"/>
</filter>
<filter id="filter10_d_339_2138" x="147.084" y="20.4281" width="50.0491" height="50.0496" filterUnits="userSpaceOnUse" color-interpolation-filters="sRGB">
<feFlood flood-opacity="0" result="BackgroundImageFix"/>
<feColorMatrix in="SourceAlpha" type="matrix" values="0 0 0 0 0 0 0 0 0 0 0 0 0 0 0 0 0 0 127 0" result="hardAlpha"/>
<feOffset dy="0.510709"/>
<feGaussianBlur stdDeviation="10.2142"/>
<feComposite in2="hardAlpha" operator="out"/>
<feColorMatrix type="matrix" values="0 0 0 0 0 0 0 0 0 0 0 0 0 0 0 0 0 0 0.1 0"/>
<feBlend mode="normal" in2="BackgroundImageFix" result="effect1_dropShadow_339_2138"/>
<feBlend mode="normal" in="SourceGraphic" in2="effect1_dropShadow_339_2138" result="shape"/>
</filter>
<filter id="filter11_d_339_2138" x="142.488" y="29.1102" width="45.4534" height="45.4529" filterUnits="userSpaceOnUse" color-interpolation-filters="sRGB">
<feFlood flood-opacity="0" result="BackgroundImageFix"/>
<feColorMatrix in="SourceAlpha" type="matrix" values="0 0 0 0 0 0 0 0 0 0 0 0 0 0 0 0 0 0 127 0" result="hardAlpha"/>
<feOffset dy="0.510709"/>
<feGaussianBlur stdDeviation="10.2142"/>
<feComposite in2="hardAlpha" operator="out"/>
<feColorMatrix type="matrix" values="0 0 0 0 0 0 0 0 0 0 0 0 0 0 0 0 0 0 0.1 0"/>
<feBlend mode="normal" in2="BackgroundImageFix" result="effect1_dropShadow_339_2138"/>
<feBlend mode="normal" in="SourceGraphic" in2="effect1_dropShadow_339_2138" result="shape"/>
</filter>
<filter id="filter12_d_339_2138" x="123.853" y="105.558" width="18.0196" height="24.15" filterUnits="userSpaceOnUse" color-interpolation-filters="sRGB">
<feFlood flood-opacity="0" result="BackgroundImageFix"/>
<feColorMatrix in="SourceAlpha" type="matrix" values="0 0 0 0 0 0 0 0 0 0 0 0 0 0 0 0 0 0 127 0" result="hardAlpha"/>
<feOffset dy="0.51469"/>
<feGaussianBlur stdDeviation="0.257345"/>
<feComposite in2="hardAlpha" operator="out"/>
<feColorMatrix type="matrix" values="0 0 0 0 0 0 0 0 0 0 0 0 0 0 0 0 0 0 0.25 0"/>
<feBlend mode="normal" in2="BackgroundImageFix" result="effect1_dropShadow_339_2138"/>
<feBlend mode="normal" in="SourceGraphic" in2="effect1_dropShadow_339_2138" result="shape"/>
</filter>
<filter id="filter13_d_339_2138" x="124.948" y="118.375" width="12.7335" height="10.212" filterUnits="userSpaceOnUse" color-interpolation-filters="sRGB">
<feFlood flood-opacity="0" result="BackgroundImageFix"/>
<feColorMatrix in="SourceAlpha" type="matrix" values="0 0 0 0 0 0 0 0 0 0 0 0 0 0 0 0 0 0 127 0" result="hardAlpha"/>
<feOffset dy="0.51469"/>
<feGaussianBlur stdDeviation="0.257345"/>
<feComposite in2="hardAlpha" operator="out"/>
<feColorMatrix type="matrix" values="0 0 0 0 0 0 0 0 0 0 0 0 0 0 0 0 0 0 0.25 0"/>
<feBlend mode="normal" in2="BackgroundImageFix" result="effect1_dropShadow_339_2138"/>
<feBlend mode="normal" in="SourceGraphic" in2="effect1_dropShadow_339_2138" result="shape"/>
</filter>
<linearGradient id="paint0_linear_339_2138" x1="45.2118" y1="79.1597" x2="45.2118" y2="157.537" gradientUnits="userSpaceOnUse">
<stop stop-color="#FAF7B8"/>
<stop offset="1" stop-color="#83DFEF"/>
</linearGradient>
<linearGradient id="paint1_linear_339_2138" x1="2.04297" y1="124.357" x2="34.9837" y2="123.081" gradientUnits="userSpaceOnUse">
<stop/>
<stop offset="0.870192" stop-color="white"/>
</linearGradient>
<linearGradient id="paint2_linear_339_2138" x1="219.874" y1="91.9272" x2="219.874" y2="170.305" gradientUnits="userSpaceOnUse">
<stop stop-color="#FAF7B8"/>
<stop offset="1" stop-color="#83DFEF"/>
</linearGradient>
<linearGradient id="paint3_linear_339_2138" x1="263.043" y1="137.125" x2="230.102" y2="135.848" gradientUnits="userSpaceOnUse">
<stop/>
<stop offset="0.870192" stop-color="white"/>
</linearGradient>
<linearGradient id="paint4_linear_339_2138" x1="137.14" y1="36.771" x2="137.14" y2="115.149" gradientUnits="userSpaceOnUse">
<stop stop-color="#FAF7B8"/>
<stop offset="1" stop-color="#83DFEF"/>
</linearGradient>
<linearGradient id="paint5_linear_339_2138" x1="124.371" y1="147.595" x2="124.371" y2="225.973" gradientUnits="userSpaceOnUse">
<stop stop-color="#FAF7B8"/>
<stop offset="1" stop-color="#83DFEF"/>
</linearGradient>
<linearGradient id="paint6_linear_339_2138" x1="167.54" y1="192.792" x2="106.482" y2="193.303" gradientUnits="userSpaceOnUse">
<stop/>
<stop offset="1" stop-color="white"/>
</linearGradient>
<linearGradient id="paint7_linear_339_2138" x1="148.902" y1="74.415" x2="148.902" y2="125.835" gradientUnits="userSpaceOnUse">
<stop stop-color="white" stop-opacity="0"/>
<stop offset="1" stop-color="white"/>
</linearGradient>
</defs>
</svg>
