<svg width="215" height="219" viewBox="0 0 215 219" fill="none" xmlns="http://www.w3.org/2000/svg">
<g filter="url(#filter0_df_446_2450)">
<path d="M172.945 166.9C173.445 160.205 170.746 141.548 155.951 120.48C150.255 112.052 137.149 96.2628 121.462 85.4762C116.357 81.8708 111.107 78.929 105.967 77.1849C98.3028 75.2508 79.0757 72.1859 63.4808 75.3995C57.4827 76.1435 41.7878 81.6484 26.9926 97.7168C19.3284 107.536 4 134.674 4 164.669C4.33322 175.678 11.6975 199.305 38.4888 205.732C57.6493 209.898 104.667 215.552 139.456 204.84C150.286 201.12 172.146 188.325 172.945 166.9Z" fill="url(#paint0_linear_446_2450)"/>
</g>
<ellipse opacity="0.5" cx="14.5" cy="7.57955" rx="14.5" ry="7.57955" transform="matrix(-1 0 0 1 53.0547 147)" fill="#FF7889"/>
<ellipse opacity="0.5" cx="14.5" cy="7.57955" rx="14.5" ry="7.57955" transform="matrix(-1 0 0 1 135.055 147)" fill="#FF7889"/>
<circle cx="4" cy="4" r="4" transform="matrix(-1 0 0 1 50.0547 97)" fill="white"/>
<circle cx="2" cy="2" r="2" transform="matrix(-1 0 0 1 42.0547 105)" fill="white"/>
<circle cx="1" cy="1" r="1" transform="matrix(-1 0 0 1 53.0547 95)" fill="white"/>
<path d="M65.0547 136.064C59.5547 125.081 49.5547 131.488 48.0547 136.064" stroke="black" stroke-width="3" stroke-linecap="round"/>
<path d="M110.055 136.064C104.555 125.081 94.5547 131.488 93.0547 136.064" stroke="black" stroke-width="3" stroke-linecap="round"/>
<circle cx="1.5" cy="1.5" r="1.5" transform="matrix(-1 0 0 1 63.0547 136)" fill="#D9D9D9"/>
<circle cx="1.5" cy="1.5" r="1.5" transform="matrix(-1 0 0 1 108.055 136)" fill="#D9D9D9"/>
<path d="M78.7434 162.12C70.2884 162.431 63.2664 158.082 63.0592 152.404C65.5547 150.998 69.5384 141.873 77.9934 141.561C86.4484 141.25 90.5547 147.998 93.6775 151.276C93.8846 156.954 87.1984 161.808 78.7434 162.12Z" fill="black"/>
<ellipse cx="78.3873" cy="154.411" rx="7.71466" ry="12.3157" transform="rotate(87.9004 78.3873 154.411)" fill="#BA1A1A"/>
<g filter="url(#filter1_d_446_2450)">
<circle cx="131.5" cy="84.5" r="6.5" fill="white"/>
</g>
<g filter="url(#filter2_d_446_2450)">
<circle cx="121.5" cy="93.5" r="3.5" fill="white"/>
</g>
<g filter="url(#filter3_d_446_2450)">
<rect x="131" y="39" width="44" height="42.6569" rx="21.3284" fill="white" shape-rendering="crispEdges"/>
<path d="M147.657 59.9498C147.267 59.5592 146.634 59.5592 146.243 59.9498C145.853 60.3403 145.853 60.9734 146.243 61.364L146.95 60.6569L147.657 59.9498ZM151.9 65.6066L151.193 66.3137C151.583 66.7042 152.217 66.7042 152.607 66.3137L151.9 65.6066ZM163.214 55.7071C163.605 55.3166 163.605 54.6834 163.214 54.2929C162.824 53.9024 162.19 53.9024 161.8 54.2929L162.507 55L163.214 55.7071ZM142.707 60C142.317 59.6095 141.683 59.6095 141.293 60C140.902 60.3906 140.902 61.0237 141.293 61.4143L142 60.7072L142.707 60ZM146.243 66.364C146.633 66.7545 147.266 66.7545 147.657 66.364C148.047 65.9735 148.047 65.3403 147.657 64.9498L146.95 65.6569L146.243 66.364ZM158.263 55.7574C158.654 55.3669 158.654 54.7337 158.263 54.3432C157.873 53.9527 157.24 53.9527 156.849 54.3432L157.556 55.0503L158.263 55.7574ZM151.546 59.6465C151.155 60.037 151.155 60.6702 151.546 61.0607C151.936 61.4512 152.57 61.4512 152.96 61.0607L152.253 60.3536L151.546 59.6465ZM146.95 60.6569L146.243 61.364L151.193 66.3137L151.9 65.6066L152.607 64.8995L147.657 59.9498L146.95 60.6569ZM151.9 65.6066L152.607 66.3137L163.214 55.7071L162.507 55L161.8 54.2929L151.193 64.8995L151.9 65.6066ZM142 60.7072L141.293 61.4143L146.243 66.364L146.95 65.6569L147.657 64.9498L142.707 60L142 60.7072ZM157.556 55.0503L156.849 54.3432L151.546 59.6465L152.253 60.3536L152.96 61.0607L158.263 55.7574L157.556 55.0503Z" fill="#0088FF"/>
</g>
<defs>
<filter id="filter0_df_446_2450" x="0" y="72" width="177" height="147" filterUnits="userSpaceOnUse" color-interpolation-filters="sRGB">
<feFlood flood-opacity="0" result="BackgroundImageFix"/>
<feColorMatrix in="SourceAlpha" type="matrix" values="0 0 0 0 0 0 0 0 0 0 0 0 0 0 0 0 0 0 127 0" result="hardAlpha"/>
<feOffset dy="4"/>
<feGaussianBlur stdDeviation="2"/>
<feComposite in2="hardAlpha" operator="out"/>
<feColorMatrix type="matrix" values="0 0 0 0 0 0 0 0 0 0 0 0 0 0 0 0 0 0 0.1 0"/>
<feBlend mode="normal" in2="BackgroundImageFix" result="effect1_dropShadow_446_2450"/>
<feBlend mode="normal" in="SourceGraphic" in2="effect1_dropShadow_446_2450" result="shape"/>
<feGaussianBlur stdDeviation="1" result="effect2_foregroundBlur_446_2450"/>
</filter>
<filter id="filter1_d_446_2450" x="85" y="39" width="93" height="93" filterUnits="userSpaceOnUse" color-interpolation-filters="sRGB">
<feFlood flood-opacity="0" result="BackgroundImageFix"/>
<feColorMatrix in="SourceAlpha" type="matrix" values="0 0 0 0 0 0 0 0 0 0 0 0 0 0 0 0 0 0 127 0" result="hardAlpha"/>
<feOffset dy="1"/>
<feGaussianBlur stdDeviation="20"/>
<feComposite in2="hardAlpha" operator="out"/>
<feColorMatrix type="matrix" values="0 0 0 0 0 0 0 0 0 0 0 0 0 0 0 0 0 0 0.1 0"/>
<feBlend mode="normal" in2="BackgroundImageFix" result="effect1_dropShadow_446_2450"/>
<feBlend mode="normal" in="SourceGraphic" in2="effect1_dropShadow_446_2450" result="shape"/>
</filter>
<filter id="filter2_d_446_2450" x="78" y="51" width="87" height="87" filterUnits="userSpaceOnUse" color-interpolation-filters="sRGB">
<feFlood flood-opacity="0" result="BackgroundImageFix"/>
<feColorMatrix in="SourceAlpha" type="matrix" values="0 0 0 0 0 0 0 0 0 0 0 0 0 0 0 0 0 0 127 0" result="hardAlpha"/>
<feOffset dy="1"/>
<feGaussianBlur stdDeviation="20"/>
<feComposite in2="hardAlpha" operator="out"/>
<feColorMatrix type="matrix" values="0 0 0 0 0 0 0 0 0 0 0 0 0 0 0 0 0 0 0.1 0"/>
<feBlend mode="normal" in2="BackgroundImageFix" result="effect1_dropShadow_446_2450"/>
<feBlend mode="normal" in="SourceGraphic" in2="effect1_dropShadow_446_2450" result="shape"/>
</filter>
<filter id="filter3_d_446_2450" x="91" y="0" width="124" height="122.657" filterUnits="userSpaceOnUse" color-interpolation-filters="sRGB">
<feFlood flood-opacity="0" result="BackgroundImageFix"/>
<feColorMatrix in="SourceAlpha" type="matrix" values="0 0 0 0 0 0 0 0 0 0 0 0 0 0 0 0 0 0 127 0" result="hardAlpha"/>
<feOffset dy="1"/>
<feGaussianBlur stdDeviation="20"/>
<feComposite in2="hardAlpha" operator="out"/>
<feColorMatrix type="matrix" values="0 0 0 0 0 0 0 0 0 0 0 0 0 0 0 0 0 0 0.1 0"/>
<feBlend mode="normal" in2="BackgroundImageFix" result="effect1_dropShadow_446_2450"/>
<feBlend mode="normal" in="SourceGraphic" in2="effect1_dropShadow_446_2450" result="shape"/>
</filter>
<linearGradient id="paint0_linear_446_2450" x1="88.5" y1="74" x2="88.5" y2="211" gradientUnits="userSpaceOnUse">
<stop stop-color="#FAF7B8"/>
<stop offset="1" stop-color="#83DFEF"/>
</linearGradient>
</defs>
</svg>
